<?xml version="1.0" encoding="utf-8" standalone="no"?>
<!DOCTYPE svg PUBLIC "-//W3C//DTD SVG 1.1//EN"
  "http://www.w3.org/Graphics/SVG/1.1/DTD/svg11.dtd">
<!-- Created with matplotlib (https://matplotlib.org/) -->
<svg height="360pt" version="1.1" viewBox="0 0 1080 360" width="1080pt" xmlns="http://www.w3.org/2000/svg" xmlns:xlink="http://www.w3.org/1999/xlink">
 <defs>
  <style type="text/css">
*{stroke-linecap:butt;stroke-linejoin:round;}
  </style>
 </defs>
 <g id="figure_1">
  <g id="patch_1">
   <path d="M 0 360 
L 1080 360 
L 1080 0 
L 0 0 
z
" style="fill:#ffffff;"/>
  </g>
  <g id="axes_1">
   <g id="patch_2">
    <path d="M 135 315 
L 515.454545 315 
L 515.454545 43.2 
L 135 43.2 
z
" style="fill:#ffffff;"/>
   </g>
   <g id="matplotlib.axis_1">
    <g id="xtick_1">
     <g id="line2d_1">
      <defs>
       <path d="M 0 0 
L 0 3.5 
" id="mb8a37292b8" style="stroke:#000000;stroke-width:0.8;"/>
      </defs>
      <g>
       <use style="stroke:#000000;stroke-width:0.8;" x="135" xlink:href="#mb8a37292b8" y="315"/>
      </g>
     </g>
     <g id="text_1">
      <!-- 0 -->
      <defs>
       <path d="M 31.78125 66.40625 
Q 24.171875 66.40625 20.328125 58.90625 
Q 16.5 51.421875 16.5 36.375 
Q 16.5 21.390625 20.328125 13.890625 
Q 24.171875 6.390625 31.78125 6.390625 
Q 39.453125 6.390625 43.28125 13.890625 
Q 47.125 21.390625 47.125 36.375 
Q 47.125 51.421875 43.28125 58.90625 
Q 39.453125 66.40625 31.78125 66.40625 
z
M 31.78125 74.21875 
Q 44.046875 74.21875 50.515625 64.515625 
Q 56.984375 54.828125 56.984375 36.375 
Q 56.984375 17.96875 50.515625 8.265625 
Q 44.046875 -1.421875 31.78125 -1.421875 
Q 19.53125 -1.421875 13.0625 8.265625 
Q 6.59375 17.96875 6.59375 36.375 
Q 6.59375 54.828125 13.0625 64.515625 
Q 19.53125 74.21875 31.78125 74.21875 
z
" id="DejaVuSans-48"/>
      </defs>
      <g transform="translate(131.81875 329.598437)scale(0.1 -0.1)">
       <use xlink:href="#DejaVuSans-48"/>
      </g>
     </g>
    </g>
    <g id="xtick_2">
     <g id="line2d_2">
      <g>
       <use style="stroke:#000000;stroke-width:0.8;" x="209.892627" xlink:href="#mb8a37292b8" y="315"/>
      </g>
     </g>
     <g id="text_2">
      <!-- 50 -->
      <defs>
       <path d="M 10.796875 72.90625 
L 49.515625 72.90625 
L 49.515625 64.59375 
L 19.828125 64.59375 
L 19.828125 46.734375 
Q 21.96875 47.46875 24.109375 47.828125 
Q 26.265625 48.1875 28.421875 48.1875 
Q 40.625 48.1875 47.75 41.5 
Q 54.890625 34.8125 54.890625 23.390625 
Q 54.890625 11.625 47.5625 5.09375 
Q 40.234375 -1.421875 26.90625 -1.421875 
Q 22.3125 -1.421875 17.546875 -0.640625 
Q 12.796875 0.140625 7.71875 1.703125 
L 7.71875 11.625 
Q 12.109375 9.234375 16.796875 8.0625 
Q 21.484375 6.890625 26.703125 6.890625 
Q 35.15625 6.890625 40.078125 11.328125 
Q 45.015625 15.765625 45.015625 23.390625 
Q 45.015625 31 40.078125 35.4375 
Q 35.15625 39.890625 26.703125 39.890625 
Q 22.75 39.890625 18.8125 39.015625 
Q 14.890625 38.140625 10.796875 36.28125 
z
" id="DejaVuSans-53"/>
      </defs>
      <g transform="translate(203.530127 329.598437)scale(0.1 -0.1)">
       <use xlink:href="#DejaVuSans-53"/>
       <use x="63.623047" xlink:href="#DejaVuSans-48"/>
      </g>
     </g>
    </g>
    <g id="xtick_3">
     <g id="line2d_3">
      <g>
       <use style="stroke:#000000;stroke-width:0.8;" x="284.785254" xlink:href="#mb8a37292b8" y="315"/>
      </g>
     </g>
     <g id="text_3">
      <!-- 100 -->
      <defs>
       <path d="M 12.40625 8.296875 
L 28.515625 8.296875 
L 28.515625 63.921875 
L 10.984375 60.40625 
L 10.984375 69.390625 
L 28.421875 72.90625 
L 38.28125 72.90625 
L 38.28125 8.296875 
L 54.390625 8.296875 
L 54.390625 0 
L 12.40625 0 
z
" id="DejaVuSans-49"/>
      </defs>
      <g transform="translate(275.241504 329.598437)scale(0.1 -0.1)">
       <use xlink:href="#DejaVuSans-49"/>
       <use x="63.623047" xlink:href="#DejaVuSans-48"/>
       <use x="127.246094" xlink:href="#DejaVuSans-48"/>
      </g>
     </g>
    </g>
    <g id="xtick_4">
     <g id="line2d_4">
      <g>
       <use style="stroke:#000000;stroke-width:0.8;" x="359.677881" xlink:href="#mb8a37292b8" y="315"/>
      </g>
     </g>
     <g id="text_4">
      <!-- 150 -->
      <g transform="translate(350.134131 329.598437)scale(0.1 -0.1)">
       <use xlink:href="#DejaVuSans-49"/>
       <use x="63.623047" xlink:href="#DejaVuSans-53"/>
       <use x="127.246094" xlink:href="#DejaVuSans-48"/>
      </g>
     </g>
    </g>
    <g id="xtick_5">
     <g id="line2d_5">
      <g>
       <use style="stroke:#000000;stroke-width:0.8;" x="434.570508" xlink:href="#mb8a37292b8" y="315"/>
      </g>
     </g>
     <g id="text_5">
      <!-- 200 -->
      <defs>
       <path d="M 19.1875 8.296875 
L 53.609375 8.296875 
L 53.609375 0 
L 7.328125 0 
L 7.328125 8.296875 
Q 12.9375 14.109375 22.625 23.890625 
Q 32.328125 33.6875 34.8125 36.53125 
Q 39.546875 41.84375 41.421875 45.53125 
Q 43.3125 49.21875 43.3125 52.78125 
Q 43.3125 58.59375 39.234375 62.25 
Q 35.15625 65.921875 28.609375 65.921875 
Q 23.96875 65.921875 18.8125 64.3125 
Q 13.671875 62.703125 7.8125 59.421875 
L 7.8125 69.390625 
Q 13.765625 71.78125 18.9375 73 
Q 24.125 74.21875 28.421875 74.21875 
Q 39.75 74.21875 46.484375 68.546875 
Q 53.21875 62.890625 53.21875 53.421875 
Q 53.21875 48.921875 51.53125 44.890625 
Q 49.859375 40.875 45.40625 35.40625 
Q 44.1875 33.984375 37.640625 27.21875 
Q 31.109375 20.453125 19.1875 8.296875 
z
" id="DejaVuSans-50"/>
      </defs>
      <g transform="translate(425.026758 329.598437)scale(0.1 -0.1)">
       <use xlink:href="#DejaVuSans-50"/>
       <use x="63.623047" xlink:href="#DejaVuSans-48"/>
       <use x="127.246094" xlink:href="#DejaVuSans-48"/>
      </g>
     </g>
    </g>
    <g id="xtick_6">
     <g id="line2d_6">
      <g>
       <use style="stroke:#000000;stroke-width:0.8;" x="509.463135" xlink:href="#mb8a37292b8" y="315"/>
      </g>
     </g>
     <g id="text_6">
      <!-- 250 -->
      <g transform="translate(499.919385 329.598437)scale(0.1 -0.1)">
       <use xlink:href="#DejaVuSans-50"/>
       <use x="63.623047" xlink:href="#DejaVuSans-53"/>
       <use x="127.246094" xlink:href="#DejaVuSans-48"/>
      </g>
     </g>
    </g>
    <g id="text_7">
     <!-- Side of a square image, pixels -->
     <defs>
      <path d="M 59.90625 70.609375 
L 59.90625 55.171875 
Q 53.90625 57.859375 48.1875 59.21875 
Q 42.484375 60.59375 37.40625 60.59375 
Q 30.671875 60.59375 27.4375 58.734375 
Q 24.21875 56.890625 24.21875 52.984375 
Q 24.21875 50.046875 26.390625 48.40625 
Q 28.5625 46.78125 34.28125 45.609375 
L 42.28125 44 
Q 54.4375 41.546875 59.5625 36.5625 
Q 64.703125 31.59375 64.703125 22.40625 
Q 64.703125 10.359375 57.546875 4.46875 
Q 50.390625 -1.421875 35.6875 -1.421875 
Q 28.765625 -1.421875 21.78125 -0.09375 
Q 14.796875 1.21875 7.8125 3.8125 
L 7.8125 19.671875 
Q 14.796875 15.96875 21.3125 14.078125 
Q 27.828125 12.203125 33.890625 12.203125 
Q 40.046875 12.203125 43.3125 14.25 
Q 46.578125 16.3125 46.578125 20.125 
Q 46.578125 23.53125 44.359375 25.390625 
Q 42.140625 27.25 35.5 28.71875 
L 28.21875 30.328125 
Q 17.28125 32.671875 12.21875 37.796875 
Q 7.171875 42.921875 7.171875 51.609375 
Q 7.171875 62.5 14.203125 68.359375 
Q 21.234375 74.21875 34.421875 74.21875 
Q 40.4375 74.21875 46.78125 73.3125 
Q 53.125 72.40625 59.90625 70.609375 
z
" id="DejaVuSans-Bold-83"/>
      <path d="M 8.40625 54.6875 
L 25.875 54.6875 
L 25.875 0 
L 8.40625 0 
z
M 8.40625 75.984375 
L 25.875 75.984375 
L 25.875 61.71875 
L 8.40625 61.71875 
z
" id="DejaVuSans-Bold-105"/>
      <path d="M 45.609375 46.6875 
L 45.609375 75.984375 
L 63.1875 75.984375 
L 63.1875 0 
L 45.609375 0 
L 45.609375 7.90625 
Q 42 3.078125 37.640625 0.828125 
Q 33.296875 -1.421875 27.59375 -1.421875 
Q 17.484375 -1.421875 10.984375 6.609375 
Q 4.5 14.65625 4.5 27.296875 
Q 4.5 39.9375 10.984375 47.96875 
Q 17.484375 56 27.59375 56 
Q 33.25 56 37.625 53.734375 
Q 42 51.46875 45.609375 46.6875 
z
M 34.078125 11.28125 
Q 39.703125 11.28125 42.65625 15.375 
Q 45.609375 19.484375 45.609375 27.296875 
Q 45.609375 35.109375 42.65625 39.203125 
Q 39.703125 43.3125 34.078125 43.3125 
Q 28.515625 43.3125 25.5625 39.203125 
Q 22.609375 35.109375 22.609375 27.296875 
Q 22.609375 19.484375 25.5625 15.375 
Q 28.515625 11.28125 34.078125 11.28125 
z
" id="DejaVuSans-Bold-100"/>
      <path d="M 62.984375 27.484375 
L 62.984375 22.515625 
L 22.125 22.515625 
Q 22.75 16.359375 26.5625 13.28125 
Q 30.375 10.203125 37.203125 10.203125 
Q 42.71875 10.203125 48.5 11.84375 
Q 54.296875 13.484375 60.40625 16.796875 
L 60.40625 3.328125 
Q 54.203125 0.984375 48 -0.21875 
Q 41.796875 -1.421875 35.59375 -1.421875 
Q 20.75 -1.421875 12.515625 6.125 
Q 4.296875 13.671875 4.296875 27.296875 
Q 4.296875 40.671875 12.375 48.328125 
Q 20.453125 56 34.625 56 
Q 47.515625 56 55.25 48.234375 
Q 62.984375 40.484375 62.984375 27.484375 
z
M 45.015625 33.296875 
Q 45.015625 38.28125 42.109375 41.328125 
Q 39.203125 44.390625 34.515625 44.390625 
Q 29.4375 44.390625 26.265625 41.53125 
Q 23.09375 38.671875 22.3125 33.296875 
z
" id="DejaVuSans-Bold-101"/>
      <path id="DejaVuSans-Bold-32"/>
      <path d="M 34.421875 43.5 
Q 28.609375 43.5 25.5625 39.328125 
Q 22.515625 35.15625 22.515625 27.296875 
Q 22.515625 19.4375 25.5625 15.25 
Q 28.609375 11.078125 34.421875 11.078125 
Q 40.140625 11.078125 43.15625 15.25 
Q 46.1875 19.4375 46.1875 27.296875 
Q 46.1875 35.15625 43.15625 39.328125 
Q 40.140625 43.5 34.421875 43.5 
z
M 34.421875 56 
Q 48.53125 56 56.46875 48.375 
Q 64.40625 40.765625 64.40625 27.296875 
Q 64.40625 13.8125 56.46875 6.1875 
Q 48.53125 -1.421875 34.421875 -1.421875 
Q 20.265625 -1.421875 12.28125 6.1875 
Q 4.296875 13.8125 4.296875 27.296875 
Q 4.296875 40.765625 12.28125 48.375 
Q 20.265625 56 34.421875 56 
z
" id="DejaVuSans-Bold-111"/>
      <path d="M 44.390625 75.984375 
L 44.390625 64.5 
L 34.71875 64.5 
Q 31 64.5 29.53125 63.15625 
Q 28.078125 61.8125 28.078125 58.5 
L 28.078125 54.6875 
L 43.015625 54.6875 
L 43.015625 42.1875 
L 28.078125 42.1875 
L 28.078125 0 
L 10.59375 0 
L 10.59375 42.1875 
L 1.90625 42.1875 
L 1.90625 54.6875 
L 10.59375 54.6875 
L 10.59375 58.5 
Q 10.59375 67.4375 15.578125 71.703125 
Q 20.5625 75.984375 31 75.984375 
z
" id="DejaVuSans-Bold-102"/>
      <path d="M 32.90625 24.609375 
Q 27.4375 24.609375 24.671875 22.75 
Q 21.921875 20.90625 21.921875 17.28125 
Q 21.921875 13.96875 24.140625 12.078125 
Q 26.375 10.203125 30.328125 10.203125 
Q 35.25 10.203125 38.625 13.734375 
Q 42 17.28125 42 22.609375 
L 42 24.609375 
z
M 59.625 31.203125 
L 59.625 0 
L 42 0 
L 42 8.109375 
Q 38.484375 3.125 34.078125 0.84375 
Q 29.6875 -1.421875 23.390625 -1.421875 
Q 14.890625 -1.421875 9.59375 3.53125 
Q 4.296875 8.5 4.296875 16.40625 
Q 4.296875 26.03125 10.90625 30.515625 
Q 17.53125 35.015625 31.6875 35.015625 
L 42 35.015625 
L 42 36.375 
Q 42 40.53125 38.71875 42.453125 
Q 35.453125 44.390625 28.515625 44.390625 
Q 22.90625 44.390625 18.0625 43.265625 
Q 13.234375 42.140625 9.078125 39.890625 
L 9.078125 53.21875 
Q 14.703125 54.59375 20.359375 55.296875 
Q 26.03125 56 31.6875 56 
Q 46.484375 56 53.046875 50.171875 
Q 59.625 44.34375 59.625 31.203125 
z
" id="DejaVuSans-Bold-97"/>
      <path d="M 51.125 52.984375 
L 51.125 39.703125 
Q 45.515625 42.046875 40.28125 43.21875 
Q 35.0625 44.390625 30.421875 44.390625 
Q 25.4375 44.390625 23.015625 43.140625 
Q 20.609375 41.890625 20.609375 39.3125 
Q 20.609375 37.203125 22.4375 36.078125 
Q 24.265625 34.96875 29 34.421875 
L 32.078125 33.984375 
Q 45.515625 32.28125 50.140625 28.375 
Q 54.78125 24.46875 54.78125 16.109375 
Q 54.78125 7.375 48.328125 2.96875 
Q 41.890625 -1.421875 29.109375 -1.421875 
Q 23.6875 -1.421875 17.890625 -0.5625 
Q 12.109375 0.296875 6 2 
L 6 15.28125 
Q 11.234375 12.75 16.71875 11.46875 
Q 22.21875 10.203125 27.875 10.203125 
Q 33.015625 10.203125 35.59375 11.609375 
Q 38.1875 13.03125 38.1875 15.828125 
Q 38.1875 18.171875 36.40625 19.3125 
Q 34.625 20.453125 29.296875 21.09375 
L 26.21875 21.484375 
Q 14.546875 22.953125 9.859375 26.90625 
Q 5.171875 30.859375 5.171875 38.921875 
Q 5.171875 47.609375 11.125 51.796875 
Q 17.09375 56 29.390625 56 
Q 34.234375 56 39.546875 55.265625 
Q 44.875 54.546875 51.125 52.984375 
z
" id="DejaVuSans-Bold-115"/>
      <path d="M 34.078125 43.3125 
Q 28.515625 43.3125 25.5625 39.203125 
Q 22.609375 35.109375 22.609375 27.296875 
Q 22.609375 19.484375 25.5625 15.375 
Q 28.515625 11.28125 34.078125 11.28125 
Q 39.703125 11.28125 42.65625 15.375 
Q 45.609375 19.484375 45.609375 27.296875 
Q 45.609375 35.109375 42.65625 39.203125 
Q 39.703125 43.3125 34.078125 43.3125 
z
M 45.609375 7.90625 
Q 42 3.078125 37.640625 0.828125 
Q 33.296875 -1.421875 27.59375 -1.421875 
Q 17.484375 -1.421875 10.984375 6.609375 
Q 4.5 14.65625 4.5 27.296875 
Q 4.5 39.9375 10.984375 47.921875 
Q 17.484375 55.90625 27.59375 55.90625 
Q 33.296875 55.90625 37.640625 53.65625 
Q 42 51.421875 45.609375 46.578125 
L 45.609375 54.6875 
L 63.1875 54.6875 
L 63.1875 -20.796875 
L 45.609375 -20.796875 
z
" id="DejaVuSans-Bold-113"/>
      <path d="M 7.8125 21.296875 
L 7.8125 54.6875 
L 25.390625 54.6875 
L 25.390625 49.21875 
Q 25.390625 44.78125 25.34375 38.0625 
Q 25.296875 31.34375 25.296875 29.109375 
Q 25.296875 22.515625 25.640625 19.609375 
Q 25.984375 16.703125 26.8125 15.375 
Q 27.875 13.671875 29.609375 12.734375 
Q 31.34375 11.8125 33.59375 11.8125 
Q 39.0625 11.8125 42.1875 16.015625 
Q 45.3125 20.21875 45.3125 27.6875 
L 45.3125 54.6875 
L 62.796875 54.6875 
L 62.796875 0 
L 45.3125 0 
L 45.3125 7.90625 
Q 41.359375 3.125 36.9375 0.84375 
Q 32.515625 -1.421875 27.203125 -1.421875 
Q 17.71875 -1.421875 12.765625 4.390625 
Q 7.8125 10.203125 7.8125 21.296875 
z
" id="DejaVuSans-Bold-117"/>
      <path d="M 49.03125 39.796875 
Q 46.734375 40.875 44.453125 41.375 
Q 42.1875 41.890625 39.890625 41.890625 
Q 33.15625 41.890625 29.515625 37.5625 
Q 25.875 33.25 25.875 25.203125 
L 25.875 0 
L 8.40625 0 
L 8.40625 54.6875 
L 25.875 54.6875 
L 25.875 45.703125 
Q 29.25 51.078125 33.609375 53.53125 
Q 37.984375 56 44.09375 56 
Q 44.96875 56 45.984375 55.921875 
Q 47.015625 55.859375 48.96875 55.609375 
z
" id="DejaVuSans-Bold-114"/>
      <path d="M 59.078125 45.609375 
Q 62.40625 50.6875 66.96875 53.34375 
Q 71.53125 56 77 56 
Q 86.421875 56 91.359375 50.1875 
Q 96.296875 44.390625 96.296875 33.296875 
L 96.296875 0 
L 78.71875 0 
L 78.71875 28.515625 
Q 78.765625 29.15625 78.78125 29.828125 
Q 78.8125 30.515625 78.8125 31.78125 
Q 78.8125 37.59375 77.09375 40.203125 
Q 75.390625 42.828125 71.578125 42.828125 
Q 66.609375 42.828125 63.890625 38.71875 
Q 61.1875 34.625 61.078125 26.859375 
L 61.078125 0 
L 43.5 0 
L 43.5 28.515625 
Q 43.5 37.59375 41.9375 40.203125 
Q 40.375 42.828125 36.375 42.828125 
Q 31.34375 42.828125 28.609375 38.703125 
Q 25.875 34.578125 25.875 26.90625 
L 25.875 0 
L 8.296875 0 
L 8.296875 54.6875 
L 25.875 54.6875 
L 25.875 46.6875 
Q 29.109375 51.3125 33.28125 53.65625 
Q 37.453125 56 42.484375 56 
Q 48.140625 56 52.484375 53.265625 
Q 56.84375 50.53125 59.078125 45.609375 
z
" id="DejaVuSans-Bold-109"/>
      <path d="M 45.609375 9.28125 
Q 42 4.5 37.640625 2.25 
Q 33.296875 0 27.59375 0 
Q 17.578125 0 11.03125 7.875 
Q 4.5 15.765625 4.5 27.984375 
Q 4.5 40.234375 11.03125 48.0625 
Q 17.578125 55.90625 27.59375 55.90625 
Q 33.296875 55.90625 37.640625 53.65625 
Q 42 51.421875 45.609375 46.578125 
L 45.609375 54.6875 
L 63.1875 54.6875 
L 63.1875 5.515625 
Q 63.1875 -7.671875 54.859375 -14.625 
Q 46.53125 -21.578125 30.71875 -21.578125 
Q 25.59375 -21.578125 20.796875 -20.796875 
Q 16.015625 -20.015625 11.1875 -18.40625 
L 11.1875 -4.78125 
Q 15.765625 -7.421875 20.15625 -8.71875 
Q 24.5625 -10.015625 29 -10.015625 
Q 37.59375 -10.015625 41.59375 -6.25 
Q 45.609375 -2.484375 45.609375 5.515625 
z
M 34.078125 43.3125 
Q 28.65625 43.3125 25.625 39.296875 
Q 22.609375 35.296875 22.609375 27.984375 
Q 22.609375 20.453125 25.53125 16.578125 
Q 28.46875 12.703125 34.078125 12.703125 
Q 39.546875 12.703125 42.578125 16.703125 
Q 45.609375 20.703125 45.609375 27.984375 
Q 45.609375 35.296875 42.578125 39.296875 
Q 39.546875 43.3125 34.078125 43.3125 
z
" id="DejaVuSans-Bold-103"/>
      <path d="M 10.203125 18.890625 
L 27.78125 18.890625 
L 27.78125 4 
L 15.71875 -14.203125 
L 5.328125 -14.203125 
L 10.203125 4 
z
" id="DejaVuSans-Bold-44"/>
      <path d="M 25.875 7.90625 
L 25.875 -20.796875 
L 8.40625 -20.796875 
L 8.40625 54.6875 
L 25.875 54.6875 
L 25.875 46.6875 
Q 29.5 51.46875 33.890625 53.734375 
Q 38.28125 56 44 56 
Q 54.109375 56 60.59375 47.96875 
Q 67.09375 39.9375 67.09375 27.296875 
Q 67.09375 14.65625 60.59375 6.609375 
Q 54.109375 -1.421875 44 -1.421875 
Q 38.28125 -1.421875 33.890625 0.84375 
Q 29.5 3.125 25.875 7.90625 
z
M 37.5 43.3125 
Q 31.890625 43.3125 28.875 39.1875 
Q 25.875 35.0625 25.875 27.296875 
Q 25.875 19.53125 28.875 15.40625 
Q 31.890625 11.28125 37.5 11.28125 
Q 43.109375 11.28125 46.0625 15.375 
Q 49.03125 19.484375 49.03125 27.296875 
Q 49.03125 35.109375 46.0625 39.203125 
Q 43.109375 43.3125 37.5 43.3125 
z
" id="DejaVuSans-Bold-112"/>
      <path d="M 22.21875 27.984375 
L 2.484375 54.6875 
L 21 54.6875 
L 32.171875 38.484375 
L 43.5 54.6875 
L 62.015625 54.6875 
L 42.28125 28.078125 
L 62.984375 0 
L 44.484375 0 
L 32.171875 17.28125 
L 20.015625 0 
L 1.515625 0 
z
" id="DejaVuSans-Bold-120"/>
      <path d="M 8.40625 75.984375 
L 25.875 75.984375 
L 25.875 0 
L 8.40625 0 
z
" id="DejaVuSans-Bold-108"/>
     </defs>
     <g transform="translate(240.142116 343.276563)scale(0.1 -0.1)">
      <use xlink:href="#DejaVuSans-Bold-83"/>
      <use x="72.021484" xlink:href="#DejaVuSans-Bold-105"/>
      <use x="106.298828" xlink:href="#DejaVuSans-Bold-100"/>
      <use x="177.880859" xlink:href="#DejaVuSans-Bold-101"/>
      <use x="245.703125" xlink:href="#DejaVuSans-Bold-32"/>
      <use x="280.517578" xlink:href="#DejaVuSans-Bold-111"/>
      <use x="349.21875" xlink:href="#DejaVuSans-Bold-102"/>
      <use x="392.724609" xlink:href="#DejaVuSans-Bold-32"/>
      <use x="427.539062" xlink:href="#DejaVuSans-Bold-97"/>
      <use x="495.019531" xlink:href="#DejaVuSans-Bold-32"/>
      <use x="529.833984" xlink:href="#DejaVuSans-Bold-115"/>
      <use x="589.355469" xlink:href="#DejaVuSans-Bold-113"/>
      <use x="660.9375" xlink:href="#DejaVuSans-Bold-117"/>
      <use x="732.128906" xlink:href="#DejaVuSans-Bold-97"/>
      <use x="799.609375" xlink:href="#DejaVuSans-Bold-114"/>
      <use x="848.925781" xlink:href="#DejaVuSans-Bold-101"/>
      <use x="916.748047" xlink:href="#DejaVuSans-Bold-32"/>
      <use x="951.5625" xlink:href="#DejaVuSans-Bold-105"/>
      <use x="985.839844" xlink:href="#DejaVuSans-Bold-109"/>
      <use x="1090.039062" xlink:href="#DejaVuSans-Bold-97"/>
      <use x="1157.519531" xlink:href="#DejaVuSans-Bold-103"/>
      <use x="1229.101562" xlink:href="#DejaVuSans-Bold-101"/>
      <use x="1296.923828" xlink:href="#DejaVuSans-Bold-44"/>
      <use x="1334.912109" xlink:href="#DejaVuSans-Bold-32"/>
      <use x="1369.726562" xlink:href="#DejaVuSans-Bold-112"/>
      <use x="1441.308594" xlink:href="#DejaVuSans-Bold-105"/>
      <use x="1475.585938" xlink:href="#DejaVuSans-Bold-120"/>
      <use x="1540.087891" xlink:href="#DejaVuSans-Bold-101"/>
      <use x="1607.910156" xlink:href="#DejaVuSans-Bold-108"/>
      <use x="1642.1875" xlink:href="#DejaVuSans-Bold-115"/>
     </g>
    </g>
   </g>
   <g id="matplotlib.axis_2">
    <g id="ytick_1">
     <g id="line2d_7">
      <defs>
       <path d="M 0 0 
L -3.5 0 
" id="mbcd68df5e5" style="stroke:#000000;stroke-width:0.8;"/>
      </defs>
      <g>
       <use style="stroke:#000000;stroke-width:0.8;" x="135" xlink:href="#mbcd68df5e5" y="315"/>
      </g>
     </g>
     <g id="text_8">
      <!-- 1.0 -->
      <defs>
       <path d="M 10.6875 12.40625 
L 21 12.40625 
L 21 0 
L 10.6875 0 
z
" id="DejaVuSans-46"/>
      </defs>
      <g transform="translate(112.096875 318.799219)scale(0.1 -0.1)">
       <use xlink:href="#DejaVuSans-49"/>
       <use x="63.623047" xlink:href="#DejaVuSans-46"/>
       <use x="95.410156" xlink:href="#DejaVuSans-48"/>
      </g>
     </g>
    </g>
    <g id="ytick_2">
     <g id="line2d_8">
      <g>
       <use style="stroke:#000000;stroke-width:0.8;" x="135" xlink:href="#mbcd68df5e5" y="259.417178"/>
      </g>
     </g>
     <g id="text_9">
      <!-- 11.0 -->
      <g transform="translate(105.734375 263.216397)scale(0.1 -0.1)">
       <use xlink:href="#DejaVuSans-49"/>
       <use x="63.623047" xlink:href="#DejaVuSans-49"/>
       <use x="127.246094" xlink:href="#DejaVuSans-46"/>
       <use x="159.033203" xlink:href="#DejaVuSans-48"/>
      </g>
     </g>
    </g>
    <g id="ytick_3">
     <g id="line2d_9">
      <g>
       <use style="stroke:#000000;stroke-width:0.8;" x="135" xlink:href="#mbcd68df5e5" y="203.834356"/>
      </g>
     </g>
     <g id="text_10">
      <!-- 21.0 -->
      <g transform="translate(105.734375 207.633575)scale(0.1 -0.1)">
       <use xlink:href="#DejaVuSans-50"/>
       <use x="63.623047" xlink:href="#DejaVuSans-49"/>
       <use x="127.246094" xlink:href="#DejaVuSans-46"/>
       <use x="159.033203" xlink:href="#DejaVuSans-48"/>
      </g>
     </g>
    </g>
    <g id="ytick_4">
     <g id="line2d_10">
      <g>
       <use style="stroke:#000000;stroke-width:0.8;" x="135" xlink:href="#mbcd68df5e5" y="148.251534"/>
      </g>
     </g>
     <g id="text_11">
      <!-- 31.0 -->
      <defs>
       <path d="M 40.578125 39.3125 
Q 47.65625 37.796875 51.625 33 
Q 55.609375 28.21875 55.609375 21.1875 
Q 55.609375 10.40625 48.1875 4.484375 
Q 40.765625 -1.421875 27.09375 -1.421875 
Q 22.515625 -1.421875 17.65625 -0.515625 
Q 12.796875 0.390625 7.625 2.203125 
L 7.625 11.71875 
Q 11.71875 9.328125 16.59375 8.109375 
Q 21.484375 6.890625 26.8125 6.890625 
Q 36.078125 6.890625 40.9375 10.546875 
Q 45.796875 14.203125 45.796875 21.1875 
Q 45.796875 27.640625 41.28125 31.265625 
Q 36.765625 34.90625 28.71875 34.90625 
L 20.21875 34.90625 
L 20.21875 43.015625 
L 29.109375 43.015625 
Q 36.375 43.015625 40.234375 45.921875 
Q 44.09375 48.828125 44.09375 54.296875 
Q 44.09375 59.90625 40.109375 62.90625 
Q 36.140625 65.921875 28.71875 65.921875 
Q 24.65625 65.921875 20.015625 65.03125 
Q 15.375 64.15625 9.8125 62.3125 
L 9.8125 71.09375 
Q 15.4375 72.65625 20.34375 73.4375 
Q 25.25 74.21875 29.59375 74.21875 
Q 40.828125 74.21875 47.359375 69.109375 
Q 53.90625 64.015625 53.90625 55.328125 
Q 53.90625 49.265625 50.4375 45.09375 
Q 46.96875 40.921875 40.578125 39.3125 
z
" id="DejaVuSans-51"/>
      </defs>
      <g transform="translate(105.734375 152.050752)scale(0.1 -0.1)">
       <use xlink:href="#DejaVuSans-51"/>
       <use x="63.623047" xlink:href="#DejaVuSans-49"/>
       <use x="127.246094" xlink:href="#DejaVuSans-46"/>
       <use x="159.033203" xlink:href="#DejaVuSans-48"/>
      </g>
     </g>
    </g>
    <g id="ytick_5">
     <g id="line2d_11">
      <g>
       <use style="stroke:#000000;stroke-width:0.8;" x="135" xlink:href="#mbcd68df5e5" y="92.668712"/>
      </g>
     </g>
     <g id="text_12">
      <!-- 41.0 -->
      <defs>
       <path d="M 37.796875 64.3125 
L 12.890625 25.390625 
L 37.796875 25.390625 
z
M 35.203125 72.90625 
L 47.609375 72.90625 
L 47.609375 25.390625 
L 58.015625 25.390625 
L 58.015625 17.1875 
L 47.609375 17.1875 
L 47.609375 0 
L 37.796875 0 
L 37.796875 17.1875 
L 4.890625 17.1875 
L 4.890625 26.703125 
z
" id="DejaVuSans-52"/>
      </defs>
      <g transform="translate(105.734375 96.46793)scale(0.1 -0.1)">
       <use xlink:href="#DejaVuSans-52"/>
       <use x="63.623047" xlink:href="#DejaVuSans-49"/>
       <use x="127.246094" xlink:href="#DejaVuSans-46"/>
       <use x="159.033203" xlink:href="#DejaVuSans-48"/>
      </g>
     </g>
    </g>
    <g id="text_13">
     <!-- sinusoid frequency, Hz -->
     <defs>
      <path d="M 63.375 33.296875 
L 63.375 0 
L 45.796875 0 
L 45.796875 5.421875 
L 45.796875 25.484375 
Q 45.796875 32.5625 45.484375 35.25 
Q 45.171875 37.9375 44.390625 39.203125 
Q 43.359375 40.921875 41.59375 41.875 
Q 39.84375 42.828125 37.59375 42.828125 
Q 32.125 42.828125 29 38.59375 
Q 25.875 34.375 25.875 26.90625 
L 25.875 0 
L 8.40625 0 
L 8.40625 54.6875 
L 25.875 54.6875 
L 25.875 46.6875 
Q 29.828125 51.46875 34.265625 53.734375 
Q 38.71875 56 44.09375 56 
Q 53.5625 56 58.46875 50.1875 
Q 63.375 44.390625 63.375 33.296875 
z
" id="DejaVuSans-Bold-110"/>
      <path d="M 52.59375 52.984375 
L 52.59375 38.71875 
Q 49.03125 41.15625 45.4375 42.328125 
Q 41.84375 43.5 37.984375 43.5 
Q 30.671875 43.5 26.59375 39.234375 
Q 22.515625 34.96875 22.515625 27.296875 
Q 22.515625 19.625 26.59375 15.34375 
Q 30.671875 11.078125 37.984375 11.078125 
Q 42.09375 11.078125 45.78125 12.296875 
Q 49.46875 13.53125 52.59375 15.921875 
L 52.59375 1.609375 
Q 48.484375 0.09375 44.265625 -0.65625 
Q 40.046875 -1.421875 35.796875 -1.421875 
Q 21 -1.421875 12.640625 6.171875 
Q 4.296875 13.765625 4.296875 27.296875 
Q 4.296875 40.828125 12.640625 48.40625 
Q 21 56 35.796875 56 
Q 40.09375 56 44.265625 55.25 
Q 48.4375 54.5 52.59375 52.984375 
z
" id="DejaVuSans-Bold-99"/>
      <path d="M 1.21875 54.6875 
L 18.703125 54.6875 
L 33.40625 17.578125 
L 45.90625 54.6875 
L 63.375 54.6875 
L 40.375 -5.171875 
Q 36.921875 -14.3125 32.296875 -17.9375 
Q 27.6875 -21.578125 20.125 -21.578125 
L 10.015625 -21.578125 
L 10.015625 -10.109375 
L 15.484375 -10.109375 
Q 19.921875 -10.109375 21.9375 -8.6875 
Q 23.96875 -7.28125 25.09375 -3.609375 
L 25.59375 -2.09375 
z
" id="DejaVuSans-Bold-121"/>
      <path d="M 9.1875 72.90625 
L 27.984375 72.90625 
L 27.984375 45.125 
L 55.71875 45.125 
L 55.71875 72.90625 
L 74.515625 72.90625 
L 74.515625 0 
L 55.71875 0 
L 55.71875 30.90625 
L 27.984375 30.90625 
L 27.984375 0 
L 9.1875 0 
z
" id="DejaVuSans-Bold-72"/>
      <path d="M 5.71875 54.6875 
L 53.421875 54.6875 
L 53.421875 42.484375 
L 24.609375 12.5 
L 53.421875 12.5 
L 53.421875 0 
L 4.5 0 
L 4.5 12.203125 
L 33.296875 42.1875 
L 5.71875 42.1875 
z
" id="DejaVuSans-Bold-122"/>
     </defs>
     <g transform="translate(99.576562 243.426562)rotate(-90)scale(0.1 -0.1)">
      <use xlink:href="#DejaVuSans-Bold-115"/>
      <use x="59.521484" xlink:href="#DejaVuSans-Bold-105"/>
      <use x="93.798828" xlink:href="#DejaVuSans-Bold-110"/>
      <use x="164.990234" xlink:href="#DejaVuSans-Bold-117"/>
      <use x="236.181641" xlink:href="#DejaVuSans-Bold-115"/>
      <use x="295.703125" xlink:href="#DejaVuSans-Bold-111"/>
      <use x="364.404297" xlink:href="#DejaVuSans-Bold-105"/>
      <use x="398.681641" xlink:href="#DejaVuSans-Bold-100"/>
      <use x="470.263672" xlink:href="#DejaVuSans-Bold-32"/>
      <use x="505.078125" xlink:href="#DejaVuSans-Bold-102"/>
      <use x="548.583984" xlink:href="#DejaVuSans-Bold-114"/>
      <use x="597.900391" xlink:href="#DejaVuSans-Bold-101"/>
      <use x="665.722656" xlink:href="#DejaVuSans-Bold-113"/>
      <use x="737.304688" xlink:href="#DejaVuSans-Bold-117"/>
      <use x="808.496094" xlink:href="#DejaVuSans-Bold-101"/>
      <use x="876.318359" xlink:href="#DejaVuSans-Bold-110"/>
      <use x="947.509766" xlink:href="#DejaVuSans-Bold-99"/>
      <use x="1006.787109" xlink:href="#DejaVuSans-Bold-121"/>
      <use x="1071.863281" xlink:href="#DejaVuSans-Bold-44"/>
      <use x="1109.851562" xlink:href="#DejaVuSans-Bold-32"/>
      <use x="1144.666016" xlink:href="#DejaVuSans-Bold-72"/>
      <use x="1228.357422" xlink:href="#DejaVuSans-Bold-122"/>
     </g>
    </g>
   </g>
   <g id="LineCollection_1">
    <path clip-path="url(#p9c939684b6)" d="M 469.021117 315 
L 467.523264 314.444172 
L 454.042591 314.444172 
L 452.544739 313.888344 
L 440.561918 313.888344 
L 439.064066 313.332515 
L 428.579098 313.332515 
L 427.081246 312.776687 
L 416.596278 312.776687 
L 415.098425 312.220859 
L 407.609162 312.220859 
L 406.11131 311.665031 
L 398.622047 311.665031 
L 397.124195 311.109202 
L 391.132785 311.109202 
L 389.634932 310.553374 
L 383.643522 310.553374 
L 382.145669 309.997546 
L 377.652112 309.997546 
L 376.154259 309.441718 
L 371.660702 309.441718 
L 370.162849 308.88589 
L 365.669291 308.88589 
L 364.171439 308.330061 
L 359.677881 308.330061 
L 358.180029 307.774233 
L 355.184324 307.774233 
L 353.686471 307.218405 
L 350.690766 307.218405 
L 349.192913 306.662577 
L 346.197208 306.662577 
L 344.699356 306.106748 
L 341.703651 306.106748 
L 340.205798 305.55092 
L 338.707946 305.55092 
L 337.210093 304.995092 
L 334.214388 304.995092 
L 332.716535 304.439264 
L 331.218683 304.439264 
L 329.72083 303.883436 
L 328.222978 303.883436 
L 326.725125 303.327607 
L 325.227273 303.327607 
L 323.72942 302.771779 
L 322.231568 302.771779 
L 320.733715 302.215951 
L 319.235863 302.215951 
L 317.73801 301.660123 
L 316.240157 301.660123 
L 314.742305 301.104294 
L 313.244452 301.104294 
L 311.7466 300.548466 
L 310.248747 300.548466 
L 307.253042 299.43681 
L 305.75519 299.43681 
L 302.759485 298.325153 
L 301.261632 298.325153 
L 296.768074 296.657669 
L 295.270222 296.657669 
L 272.802434 288.320245 
L 272.802434 287.764417 
L 268.308876 286.096933 
L 268.308876 285.541104 
L 265.313171 284.429448 
L 265.313171 283.87362 
L 262.317466 282.761963 
L 262.317466 282.206135 
L 259.321761 281.094479 
L 259.321761 280.53865 
L 257.823908 279.982822 
L 257.823908 279.426994 
L 256.326056 278.871166 
L 256.326056 278.315337 
L 254.828203 277.759509 
L 254.828203 277.203681 
L 253.330351 276.647853 
L 253.330351 276.092025 
L 251.832498 275.536196 
L 251.832498 274.980368 
L 250.334646 274.42454 
L 250.334646 273.868712 
L 248.836793 273.312883 
L 248.836793 272.757055 
L 247.338941 272.201227 
L 247.338941 271.645399 
L 245.841088 271.089571 
L 245.841088 269.977914 
L 244.343236 269.422086 
L 244.343236 268.866258 
L 242.845383 268.310429 
L 242.845383 267.198773 
L 241.34753 266.642945 
L 241.34753 265.531288 
L 239.849678 264.97546 
L 239.849678 263.863804 
L 238.351825 263.307975 
L 238.351825 262.196319 
L 236.853973 261.640491 
L 236.853973 260.528834 
L 235.35612 259.973006 
L 235.35612 258.86135 
L 233.858268 258.305521 
L 233.858268 257.193865 
L 232.360415 256.638037 
L 232.360415 254.970552 
L 230.862563 254.414724 
L 230.862563 252.747239 
L 229.36471 252.191411 
L 229.36471 251.079755 
L 227.866858 250.523926 
L 227.866858 248.300613 
L 226.369005 247.744785 
L 226.369005 246.077301 
L 224.871152 245.521472 
L 224.871152 243.853988 
L 223.3733 243.29816 
L 223.3733 241.074847 
L 221.875447 240.519018 
L 221.875447 238.295706 
L 220.377595 237.739877 
L 220.377595 235.516564 
L 218.879742 234.960736 
L 218.879742 232.181595 
L 217.38189 231.625767 
L 217.38189 228.846626 
L 215.884037 228.290798 
L 215.884037 225.511656 
L 214.386185 224.955828 
L 214.386185 222.176687 
L 212.888332 221.620859 
L 212.888332 218.28589 
L 211.39048 217.730061 
L 211.39048 213.839264 
L 209.892627 213.283436 
L 209.892627 209.392638 
L 209.186108 209.13046 
L 209.186108 209.13046 
" style="fill:none;stroke:#440154;stroke-width:1.5;"/>
    <path clip-path="url(#p9c939684b6)" d="M 205.399069 195.764528 
L 205.399069 194.941104 
L 203.901217 194.385276 
L 203.901217 189.382822 
L 202.403364 188.826994 
L 202.403364 183.82454 
L 200.905512 183.268712 
L 200.905512 177.154601 
L 199.407659 176.598773 
L 199.407659 170.484663 
L 197.909807 169.928834 
L 197.909807 163.258896 
L 196.411954 162.703067 
L 196.411954 155.477301 
L 194.914102 154.921472 
L 194.914102 147.139877 
L 193.416249 146.584049 
L 193.416249 138.246626 
L 191.918397 137.690798 
L 191.918397 128.241718 
L 190.420544 127.68589 
L 190.420544 117.680982 
L 188.922691 117.125153 
L 188.922691 106.564417 
L 187.424839 106.008589 
L 187.424839 93.780368 
L 185.926986 93.22454 
L 185.926986 80.440491 
L 184.429134 79.884663 
L 184.429134 65.433129 
L 182.931281 64.877301 
L 182.931281 49.31411 
L 181.433429 48.758282 
L 181.433429 43.2 
L 181.433429 43.2 
" style="fill:none;stroke:#440154;stroke-width:1.5;"/>
   </g>
   <g id="LineCollection_2">
    <path clip-path="url(#p9c939684b6)" d="M 346.197208 315 
L 344.699356 314.444172 
L 335.712241 314.444172 
L 334.214388 313.888344 
L 328.222978 313.888344 
L 326.725125 313.332515 
L 320.733715 313.332515 
L 319.235863 312.776687 
L 313.244452 312.776687 
L 311.7466 312.220859 
L 307.253042 312.220859 
L 305.75519 311.665031 
L 301.261632 311.665031 
L 299.76378 311.109202 
L 296.768074 311.109202 
L 295.270222 310.553374 
L 292.274517 310.553374 
L 290.776664 309.997546 
L 287.780959 309.997546 
L 286.283107 309.441718 
L 284.785254 309.441718 
L 283.287402 308.88589 
L 280.291696 308.88589 
L 278.793844 308.330061 
L 277.295991 308.330061 
L 275.798139 307.774233 
L 274.300286 307.774233 
L 272.802434 307.218405 
L 271.304581 307.218405 
L 269.806729 306.662577 
L 268.308876 306.662577 
L 266.811024 306.106748 
L 265.313171 306.106748 
L 262.317466 304.995092 
L 260.819613 304.995092 
L 257.823908 303.883436 
L 256.326056 303.883436 
L 251.832498 302.215951 
L 250.334646 302.215951 
L 238.351825 297.769325 
L 238.351825 297.213497 
L 232.360415 294.990184 
L 232.360415 294.434356 
L 229.36471 293.322699 
L 229.36471 292.766871 
L 227.866858 292.211043 
L 227.866858 291.655215 
L 224.871152 290.543558 
L 224.871152 289.98773 
L 223.3733 289.431902 
L 223.3733 288.876074 
L 221.875447 288.320245 
L 221.875447 287.764417 
L 220.377595 287.208589 
L 220.377595 286.652761 
L 218.879742 286.096933 
L 218.879742 285.541104 
L 217.38189 284.985276 
L 217.38189 283.87362 
L 215.884037 283.317791 
L 215.884037 282.761963 
L 214.386185 282.206135 
L 214.386185 281.094479 
L 212.888332 280.53865 
L 212.888332 279.982822 
L 211.39048 279.426994 
L 211.39048 278.315337 
L 209.892627 277.759509 
L 209.892627 276.092025 
L 208.394775 275.536196 
L 208.394775 274.42454 
L 206.896922 273.868712 
L 206.896922 272.757055 
L 205.399069 272.201227 
L 205.399069 270.533742 
L 203.901217 269.977914 
L 203.901217 268.310429 
L 202.403364 267.754601 
L 202.403364 266.087117 
L 200.905512 265.531288 
L 200.905512 263.307975 
L 199.407659 262.752147 
L 199.407659 260.528834 
L 197.909807 259.973006 
L 197.909807 257.749693 
L 196.411954 257.193865 
L 196.411954 254.970552 
L 194.914102 254.414724 
L 194.914102 251.079755 
L 193.416249 250.523926 
L 193.416249 247.744785 
L 191.918397 247.188957 
L 191.918397 243.853988 
L 190.420544 243.29816 
L 190.420544 239.407362 
L 188.922691 238.851534 
L 188.922691 234.960736 
L 187.424839 234.404908 
L 187.424839 229.958282 
L 185.926986 229.402454 
L 185.926986 224.4 
L 184.429134 223.844172 
L 184.429134 218.841718 
L 182.931281 218.28589 
L 182.931281 213.01584 
L 182.931281 213.01584 
" style="fill:none;stroke:#481c6e;stroke-width:1.5;"/>
    <path clip-path="url(#p9c939684b6)" d="M 179.935576 199.099497 
L 179.935576 197.164417 
L 178.437724 196.608589 
L 178.437724 188.826994 
L 176.939871 188.271166 
L 176.939871 178.822086 
L 175.442019 178.266258 
L 175.442019 168.26135 
L 173.944166 167.705521 
L 173.944166 156.588957 
L 172.446314 156.033129 
L 172.446314 142.693252 
L 170.948461 142.137423 
L 170.948461 127.68589 
L 169.450608 127.130061 
L 169.450608 110.455215 
L 167.952756 109.899387 
L 167.952756 91.001227 
L 166.454903 90.445399 
L 166.454903 68.768098 
L 164.957051 68.21227 
L 164.957051 43.2 
L 164.957051 43.2 
" style="fill:none;stroke:#481c6e;stroke-width:1.5;"/>
   </g>
   <g id="LineCollection_3">
    <path clip-path="url(#p9c939684b6)" d="M 277.295991 315 
L 275.798139 314.444172 
L 269.806729 314.444172 
L 268.308876 313.888344 
L 265.313171 313.888344 
L 263.815319 313.332515 
L 259.321761 313.332515 
L 257.823908 312.776687 
L 254.828203 312.776687 
L 253.330351 312.220859 
L 250.334646 312.220859 
L 248.836793 311.665031 
L 247.338941 311.665031 
L 245.841088 311.109202 
L 244.343236 311.109202 
L 242.845383 310.553374 
L 241.34753 310.553374 
L 239.849678 309.997546 
L 238.351825 309.997546 
L 236.853973 309.441718 
L 235.35612 309.441718 
L 233.858268 308.88589 
L 232.360415 308.88589 
L 229.36471 307.774233 
L 227.866858 307.774233 
L 220.377595 304.995092 
L 218.879742 304.995092 
L 217.38189 304.439264 
L 217.38189 303.883436 
L 209.892627 301.104294 
L 209.892627 300.548466 
L 206.896922 299.43681 
L 206.896922 298.880982 
L 205.399069 298.325153 
L 205.399069 297.769325 
L 202.403364 296.657669 
L 202.403364 296.10184 
L 200.905512 295.546012 
L 200.905512 294.990184 
L 199.407659 294.434356 
L 199.407659 293.322699 
L 197.909807 292.766871 
L 197.909807 292.211043 
L 196.411954 291.655215 
L 196.411954 290.543558 
L 194.914102 289.98773 
L 194.914102 289.431902 
L 193.416249 288.876074 
L 193.416249 287.764417 
L 191.918397 287.208589 
L 191.918397 286.096933 
L 190.420544 285.541104 
L 190.420544 283.87362 
L 188.922691 283.317791 
L 188.922691 281.650307 
L 187.424839 281.094479 
L 187.424839 279.426994 
L 185.926986 278.871166 
L 185.926986 277.203681 
L 184.429134 276.647853 
L 184.429134 274.42454 
L 182.931281 273.868712 
L 182.931281 271.645399 
L 181.433429 271.089571 
L 181.433429 268.310429 
L 179.935576 267.754601 
L 179.935576 264.419632 
L 178.437724 263.863804 
L 178.437724 260.528834 
L 176.939871 259.973006 
L 176.939871 256.638037 
L 175.442019 256.082209 
L 175.442019 251.635583 
L 173.944166 251.079755 
L 173.944166 246.077301 
L 172.446314 245.521472 
L 172.446314 239.96319 
L 170.948461 239.407362 
L 170.948461 233.293252 
L 169.450608 232.737423 
L 169.450608 225.511656 
L 167.952756 224.955828 
L 167.952756 216.618405 
L 166.454903 216.062577 
L 166.454903 206.057669 
L 164.957051 205.50184 
L 164.957051 194.941104 
L 163.459198 193.829448 
L 163.459198 181.601227 
L 161.961346 180.489571 
L 161.961346 166.593865 
L 161.212419 166.038037 
L 161.212419 164.92638 
L 160.463493 164.370552 
L 160.463493 149.36319 
L 159.714567 148.807362 
L 159.714567 146.028221 
L 158.965641 145.472393 
L 158.965641 128.241718 
L 158.216714 127.68589 
L 158.216714 123.239264 
L 157.467788 122.683436 
L 157.467788 103.785276 
L 156.718862 103.229448 
L 156.718862 96.003681 
L 155.969936 95.447853 
L 155.969936 87.549693 
L 155.969936 87.549693 
" style="fill:none;stroke:#3d4d8a;stroke-width:1.5;"/>
    <path clip-path="url(#p9c939684b6)" d="M 155.221009 65.926515 
L 155.221009 65.433129 
L 155.221009 64.877301 
L 155.221009 64.321472 
L 155.221009 63.765644 
L 155.221009 63.209816 
L 154.472083 62.653988 
L 154.472083 62.09816 
L 154.472083 61.542331 
L 154.472083 60.986503 
L 154.472083 60.430675 
L 154.472083 59.874847 
L 154.472083 59.319018 
L 154.472083 58.76319 
L 154.472083 58.207362 
L 154.472083 57.651534 
L 154.472083 57.095706 
L 154.472083 56.539877 
L 154.472083 55.984049 
L 154.472083 55.428221 
L 154.472083 54.872393 
L 154.472083 54.316564 
L 154.472083 53.760736 
L 154.472083 53.204908 
L 154.472083 52.64908 
L 154.472083 52.093252 
L 154.472083 51.537423 
L 154.472083 50.981595 
L 154.472083 50.425767 
L 154.472083 49.869939 
L 154.472083 49.31411 
L 154.472083 48.758282 
L 154.472083 48.202454 
L 154.472083 47.646626 
L 154.472083 47.090798 
L 154.472083 46.534969 
L 154.472083 45.979141 
L 154.472083 45.423313 
L 154.472083 44.867485 
L 154.472083 44.311656 
L 154.472083 43.755828 
L 154.472083 43.2 
" style="fill:none;stroke:#3d4d8a;stroke-width:1.5;"/>
   </g>
   <g id="LineCollection_4">
    <path clip-path="url(#p9c939684b6)" d="M 238.351825 315 
L 236.853973 314.722086 
L 235.35612 314.722086 
L 233.858268 314.444172 
L 232.360415 314.444172 
L 229.36471 313.888344 
L 227.866858 313.888344 
L 226.369005 313.332515 
L 224.871152 313.332515 
L 215.884037 311.665031 
L 214.386185 311.109202 
L 212.888332 311.109202 
L 208.394775 309.441718 
L 206.896922 309.441718 
L 196.411954 305.55092 
L 196.411954 304.995092 
L 193.416249 303.883436 
L 193.416249 303.327607 
L 190.420544 302.215951 
L 190.420544 301.660123 
L 188.922691 301.104294 
L 188.922691 300.548466 
L 187.424839 299.992638 
L 187.424839 299.43681 
L 185.926986 298.880982 
L 185.926986 298.325153 
L 184.429134 297.213497 
L 184.429134 296.657669 
L 182.931281 296.10184 
L 182.931281 295.546012 
L 181.433429 294.434356 
L 181.433429 293.878528 
L 179.935576 292.766871 
L 179.935576 291.655215 
L 178.437724 291.099387 
L 178.437724 289.98773 
L 176.939871 288.876074 
L 176.939871 287.764417 
L 175.442019 286.652761 
L 175.442019 285.541104 
L 174.693092 284.985276 
L 174.693092 284.429448 
L 173.944166 283.87362 
L 173.944166 282.761963 
L 173.19524 282.206135 
L 173.19524 281.650307 
L 172.446314 281.094479 
L 172.446314 279.982822 
L 171.697387 279.426994 
L 171.697387 278.315337 
L 170.948461 277.759509 
L 170.948461 276.092025 
L 170.199535 275.536196 
L 170.199535 274.980368 
L 169.450608 274.42454 
L 169.450608 272.757055 
L 168.701682 272.201227 
L 168.701682 270.533742 
L 167.952756 269.977914 
L 167.952756 268.310429 
L 167.20383 267.754601 
L 167.20383 266.087117 
L 166.454903 265.531288 
L 166.454903 263.307975 
L 165.705977 262.752147 
L 165.705977 261.084663 
L 164.957051 260.528834 
L 164.957051 257.749693 
L 164.208125 257.193865 
L 164.208125 254.414724 
L 163.459198 253.858896 
L 163.459198 251.079755 
L 162.710272 250.523926 
L 162.710272 247.744785 
L 161.961346 247.188957 
L 161.961346 243.853988 
L 161.462062 243.29816 
L 161.462062 242.742331 
L 161.212419 242.186503 
L 161.212419 239.96319 
L 160.962777 239.407362 
L 160.463493 238.851534 
L 160.463493 234.960736 
L 159.964209 234.404908 
L 159.964209 233.293252 
L 159.714567 232.737423 
L 159.714567 230.51411 
L 159.464925 229.958282 
L 159.464925 229.402454 
L 158.965641 228.846626 
L 158.965641 224.4 
L 158.466356 223.844172 
L 158.466356 222.176687 
L 158.216714 221.620859 
L 158.216714 219.397546 
L 157.967072 218.841718 
L 157.967072 217.174233 
L 157.467788 216.618405 
L 157.467788 212.171779 
L 156.968504 211.615951 
L 156.968504 208.280982 
L 156.718862 207.725153 
L 156.718862 206.613497 
L 156.46922 206.057669 
L 156.46922 203.278528 
L 155.969936 202.722699 
L 155.969936 197.164417 
L 155.470651 196.608589 
L 155.470651 192.161963 
L 155.221009 191.606135 
L 155.221009 191.050307 
L 154.971367 190.494479 
L 154.971367 186.047853 
L 154.472083 185.492025 
L 154.472083 178.822086 
L 154.09762 178.266258 
L 154.09762 177.710429 
L 153.972799 177.154601 
L 153.972799 171.596319 
L 153.473515 171.040491 
L 153.473515 164.370552 
L 152.97423 163.814724 
L 152.97423 156.588957 
L 152.599767 156.033129 
L 152.599767 153.253988 
L 152.474946 152.69816 
L 152.474946 147.695706 
L 152.225304 147.139877 
L 152.225304 145.472393 
L 151.975662 144.916564 
L 151.975662 138.246626 
L 151.850841 137.690798 
L 151.850841 137.134969 
L 151.476378 136.579141 
L 151.476378 127.68589 
L 151.101915 127.130061 
L 151.101915 121.015951 
L 150.977094 120.460123 
L 150.977094 117.680982 
L 150.727452 117.125153 
L 150.727452 112.122699 
L 150.47781 111.566871 
L 150.47781 108.542951 
L 150.47781 108.542951 
" style="fill:none;stroke:#228d8d;stroke-width:1.5;"/>
    <path clip-path="url(#p9c939684b6)" d="M 149.604062 86.751777 
L 149.604062 86.554601 
L 149.604062 85.998773 
L 149.604062 85.442945 
L 149.604062 84.887117 
L 149.604062 84.331288 
L 149.604062 83.77546 
L 149.604062 83.219632 
L 149.604062 82.663804 
L 149.604062 82.107975 
L 149.604062 81.552147 
L 149.604062 80.996319 
L 149.604062 80.440491 
L 149.604062 79.884663 
L 149.604062 79.328834 
L 149.229599 78.773006 
L 149.229599 78.217178 
L 149.229599 77.66135 
L 149.229599 77.105521 
L 149.229599 76.549693 
L 149.229599 75.993865 
L 149.229599 75.438037 
L 149.229599 74.882209 
L 149.229599 74.32638 
L 149.229599 73.770552 
L 149.229599 73.214724 
L 149.229599 72.658896 
L 149.229599 72.103067 
L 149.229599 71.547239 
L 149.229599 70.991411 
L 149.229599 70.435583 
L 149.229599 69.879755 
L 149.229599 69.323926 
L 149.229599 68.768098 
L 149.229599 68.21227 
L 148.979957 67.656442 
L 148.979957 67.100613 
L 148.979957 66.544785 
L 148.979957 65.988957 
L 148.979957 65.433129 
L 148.855136 64.877301 
L 148.855136 64.321472 
L 148.855136 63.765644 
L 148.855136 63.209816 
L 148.855136 62.653988 
L 148.855136 62.09816 
L 148.855136 61.542331 
L 148.855136 60.986503 
L 148.855136 60.430675 
L 148.855136 59.874847 
L 148.855136 59.319018 
L 148.855136 58.76319 
L 148.855136 58.207362 
L 148.855136 57.651534 
L 148.855136 57.095706 
L 148.855136 56.539877 
L 148.855136 55.984049 
L 148.480673 55.428221 
L 148.480673 54.872393 
L 148.480673 54.316564 
L 148.480673 53.760736 
L 148.480673 53.204908 
L 148.480673 52.64908 
L 148.480673 52.093252 
L 148.480673 51.537423 
L 148.480673 50.981595 
L 148.480673 50.425767 
L 148.480673 49.869939 
L 148.480673 49.31411 
L 148.480673 48.758282 
L 148.480673 48.202454 
L 148.480673 47.646626 
L 148.480673 47.090798 
L 148.480673 46.534969 
L 148.480673 45.979141 
L 148.480673 45.423313 
L 148.480673 44.867485 
L 148.480673 44.311656 
L 148.480673 43.755828 
L 148.480673 43.2 
" style="fill:none;stroke:#228d8d;stroke-width:1.5;"/>
   </g>
   <g id="LineCollection_5">
    <path clip-path="url(#p9c939684b6)" d="M 208.394775 315 
L 206.896922 314.861043 
L 197.909807 313.147239 
L 193.416249 311.942945 
L 191.918397 311.479755 
L 190.420544 311.109202 
L 185.926986 309.441718 
L 184.429134 308.607975 
L 182.431997 307.774233 
L 181.433429 307.218405 
L 179.935576 306.106748 
L 177.93844 304.995092 
L 177.439155 304.439264 
L 176.440587 303.883436 
L 175.941303 303.327607 
L 174.942734 302.771779 
L 172.945598 300.548466 
L 172.07185 299.992638 
L 170.449177 297.769325 
L 168.951324 296.10184 
L 168.701682 295.546012 
L 165.456335 290.543558 
L 165.331514 289.98773 
L 164.582588 288.876074 
L 164.582588 288.320245 
L 163.459198 286.652761 
L 163.459198 286.096933 
L 163.084735 285.541104 
L 163.084735 284.985276 
L 162.335809 283.87362 
L 162.335809 283.317791 
L 161.961346 282.761963 
L 161.961346 282.206135 
L 161.661775 281.650307 
L 161.586883 281.094479 
L 161.212419 280.53865 
L 160.763064 278.871166 
L 160.463493 278.315337 
L 160.463493 277.759509 
L 160.163923 277.203681 
L 160.08903 276.647853 
L 159.714567 275.536196 
L 159.265211 273.868712 
L 158.965641 273.312883 
L 158.965641 272.757055 
L 158.66607 272.201227 
L 158.66607 271.645399 
L 158.3665 271.089571 
L 158.3665 270.533742 
L 158.066929 269.422086 
L 158.066929 268.866258 
L 157.767359 268.310429 
L 157.767359 267.754601 
L 157.467788 267.198773 
L 157.467788 266.642945 
L 157.218146 266.087117 
L 156.968504 264.419632 
L 156.569077 262.196319 
L 156.269506 261.640491 
L 156.269506 260.528834 
L 155.969936 259.973006 
L 155.969936 258.86135 
L 155.720293 258.305521 
L 155.720293 257.749693 
L 155.470651 257.193865 
L 155.370795 256.082209 
L 155.221009 255.52638 
L 155.221009 254.970552 
L 155.071224 254.414724 
L 154.971367 253.303067 
L 154.771654 252.747239 
L 154.721725 251.635583 
L 154.472083 251.079755 
L 154.472083 249.968098 
L 154.258104 249.41227 
L 154.044125 247.744785 
L 153.972799 246.633129 
L 153.972799 246.077301 
L 153.723157 245.521472 
L 153.723157 244.409816 
L 153.473515 243.853988 
L 153.473515 242.742331 
L 153.273801 242.186503 
L 152.97423 238.851534 
L 152.760252 238.295706 
L 152.724588 236.628221 
L 152.546273 236.072393 
L 152.474946 234.404908 
L 152.332294 233.84908 
L 152.225304 232.181595 
L 151.975662 230.51411 
L 151.904336 228.846626 
L 151.72602 228.290798 
L 151.72602 226.623313 
L 151.476378 226.067485 
L 151.476378 224.4 
L 151.289146 223.844172 
L 151.262399 221.620859 
L 151.04842 220.509202 
L 151.04842 219.397546 
L 150.834441 218.28589 
L 150.834441 216.618405 
L 150.620462 216.062577 
L 150.620462 213.839264 
L 150.406483 213.283436 
L 150.406483 211.615951 
L 150.228168 211.060123 
L 150.192504 208.83681 
L 149.978525 208.280982 
L 149.978525 206.057669 
L 149.812097 205.50184 
L 149.791294 203.278528 
L 149.604062 202.166871 
L 149.604062 199.943558 
L 149.416831 199.38773 
L 149.336589 196.608589 
L 149.229599 195.496933 
L 149.12261 193.27362 
L 149.042368 192.161963 
L 149.042368 191.606135 
L 148.908631 191.050307 
L 148.855136 188.271166 
L 148.694652 187.715337 
L 148.694652 185.492025 
L 148.480673 184.936196 
L 148.480673 181.601227 
L 148.330888 181.045399 
L 148.10621 174.37546 
L 147.981389 173.819632 
L 147.918978 170.484663 
L 147.814961 169.373006 
L 147.731747 166.593865 
L 147.648533 165.482209 
L 147.544515 162.147239 
L 147.357283 159.923926 
L 147.357283 157.700613 
L 147.196799 157.144785 
L 147.170052 154.365644 
L 147.170052 153.253988 
L 146.98282 152.69816 
L 146.98282 149.36319 
L 146.846652 148.807362 
L 146.833035 144.916564 
L 146.710484 144.360736 
L 146.68325 140.469939 
L 146.533465 139.358282 
L 146.483536 135.467485 
L 146.383679 134.355828 
L 146.317108 130.465031 
L 146.233894 129.353374 
L 146.15068 124.906748 
L 146.084109 123.795092 
L 145.984252 118.792638 
L 145.817824 118.23681 
L 145.817824 113.790184 
L 145.672199 113.234356 
L 145.651396 108.78773 
L 145.484968 108.231902 
L 145.484968 103.785276 
L 145.369748 103.229448 
L 145.360147 98.226994 
L 145.235326 97.671166 
L 145.212631 92.112883 
L 145.110505 91.001227 
L 145.076463 85.998773 
L 144.985684 84.887117 
L 144.940294 79.328834 
L 144.804126 78.773006 
L 144.736042 72.658896 
L 144.667957 71.547239 
L 144.586256 65.433129 
L 144.531789 63.765644 
L 144.436471 58.062751 
L 144.436471 58.062751 
" style="fill:none;stroke:#fde725;stroke-width:1.5;"/>
   </g>
   <g id="line2d_12">
    <path clip-path="url(#p9c939684b6)" d="M 135 264.97546 
L 515.454545 264.97546 
" style="fill:none;stroke:#808080;stroke-dasharray:1.5,2.475;stroke-dashoffset:0;stroke-width:1.5;"/>
   </g>
   <g id="line2d_13">
    <path clip-path="url(#p9c939684b6)" d="M 241.34753 315 
L 241.34753 43.2 
" style="fill:none;stroke:#ff0000;stroke-dasharray:1.5,2.475;stroke-dashoffset:0;stroke-width:1.5;"/>
   </g>
   <g id="patch_3">
    <path d="M 135 315 
L 135 43.2 
" style="fill:none;stroke:#000000;stroke-linecap:square;stroke-linejoin:miter;stroke-width:0.8;"/>
   </g>
   <g id="patch_4">
    <path d="M 515.454545 315 
L 515.454545 43.2 
" style="fill:none;stroke:#000000;stroke-linecap:square;stroke-linejoin:miter;stroke-width:0.8;"/>
   </g>
   <g id="patch_5">
    <path d="M 135 315 
L 515.454545 315 
" style="fill:none;stroke:#000000;stroke-linecap:square;stroke-linejoin:miter;stroke-width:0.8;"/>
   </g>
   <g id="patch_6">
    <path d="M 135 43.2 
L 515.454545 43.2 
" style="fill:none;stroke:#000000;stroke-linecap:square;stroke-linejoin:miter;stroke-width:0.8;"/>
   </g>
   <g id="text_14">
    <g clip-path="url(#p9c939684b6)">
     <!-- 1 -->
     <g style="fill:#440154;" transform="translate(203.356422 200.442489)rotate(-286.279056)scale(0.1 -0.1)">
      <use xlink:href="#DejaVuSans-49"/>
     </g>
    </g>
   </g>
   <g id="text_15">
    <g clip-path="url(#p9c939684b6)">
     <!-- 4 -->
     <g style="fill:#481c6e;" transform="translate(177.871972 203.810331)rotate(-286.80945)scale(0.1 -0.1)">
      <use xlink:href="#DejaVuSans-52"/>
     </g>
    </g>
   </g>
   <g id="text_16">
    <g clip-path="url(#p9c939684b6)">
     <!-- 10 -->
     <g style="fill:#3d4d8a;" transform="translate(152.807159 70.377789)rotate(-273.686692)scale(0.1 -0.1)">
      <use xlink:href="#DejaVuSans-49"/>
      <use x="63.623047" xlink:href="#DejaVuSans-48"/>
     </g>
    </g>
   </g>
   <g id="text_17">
    <g clip-path="url(#p9c939684b6)">
     <!-- 20 -->
     <g style="fill:#228d8d;" transform="translate(147.020164 91.398713)rotate(-271.804538)scale(0.1 -0.1)">
      <use xlink:href="#DejaVuSans-50"/>
      <use x="63.623047" xlink:href="#DejaVuSans-48"/>
     </g>
    </g>
   </g>
   <g id="text_18">
    <g clip-path="url(#p9c939684b6)">
     <!-- 40 -->
     <g style="fill:#fde725;" transform="translate(141.185865 40.814895)rotate(-271.737637)scale(0.1 -0.1)">
      <use xlink:href="#DejaVuSans-52"/>
      <use x="63.623047" xlink:href="#DejaVuSans-48"/>
     </g>
    </g>
   </g>
   <g id="legend_1">
    <g id="patch_7">
     <path d="M 260.623295 103.23 
L 508.454545 103.23 
Q 510.454545 103.23 510.454545 101.23 
L 510.454545 50.2 
Q 510.454545 48.2 508.454545 48.2 
L 260.623295 48.2 
Q 258.623295 48.2 258.623295 50.2 
L 258.623295 101.23 
Q 258.623295 103.23 260.623295 103.23 
z
" style="fill:#ffffff;opacity:0.8;stroke:#cccccc;stroke-linejoin:miter;"/>
    </g>
    <g id="line2d_14">
     <path d="M 262.623295 62.937188 
L 282.623295 62.937188 
" style="fill:none;stroke:#808080;stroke-dasharray:1.5,2.475;stroke-dashoffset:0;stroke-width:1.5;"/>
    </g>
    <g id="line2d_15"/>
    <g id="text_19">
     <!-- min freq. at which at least one cycle  -->
     <defs>
      <path d="M 52 44.1875 
Q 55.375 50.25 60.0625 53.125 
Q 64.75 56 71.09375 56 
Q 79.640625 56 84.28125 50.015625 
Q 88.921875 44.046875 88.921875 33.015625 
L 88.921875 0 
L 79.890625 0 
L 79.890625 32.71875 
Q 79.890625 40.578125 77.09375 44.375 
Q 74.3125 48.1875 68.609375 48.1875 
Q 61.625 48.1875 57.5625 43.546875 
Q 53.515625 38.921875 53.515625 30.90625 
L 53.515625 0 
L 44.484375 0 
L 44.484375 32.71875 
Q 44.484375 40.625 41.703125 44.40625 
Q 38.921875 48.1875 33.109375 48.1875 
Q 26.21875 48.1875 22.15625 43.53125 
Q 18.109375 38.875 18.109375 30.90625 
L 18.109375 0 
L 9.078125 0 
L 9.078125 54.6875 
L 18.109375 54.6875 
L 18.109375 46.1875 
Q 21.1875 51.21875 25.484375 53.609375 
Q 29.78125 56 35.6875 56 
Q 41.65625 56 45.828125 52.96875 
Q 50 49.953125 52 44.1875 
z
" id="DejaVuSans-109"/>
      <path d="M 9.421875 54.6875 
L 18.40625 54.6875 
L 18.40625 0 
L 9.421875 0 
z
M 9.421875 75.984375 
L 18.40625 75.984375 
L 18.40625 64.59375 
L 9.421875 64.59375 
z
" id="DejaVuSans-105"/>
      <path d="M 54.890625 33.015625 
L 54.890625 0 
L 45.90625 0 
L 45.90625 32.71875 
Q 45.90625 40.484375 42.875 44.328125 
Q 39.84375 48.1875 33.796875 48.1875 
Q 26.515625 48.1875 22.3125 43.546875 
Q 18.109375 38.921875 18.109375 30.90625 
L 18.109375 0 
L 9.078125 0 
L 9.078125 54.6875 
L 18.109375 54.6875 
L 18.109375 46.1875 
Q 21.34375 51.125 25.703125 53.5625 
Q 30.078125 56 35.796875 56 
Q 45.21875 56 50.046875 50.171875 
Q 54.890625 44.34375 54.890625 33.015625 
z
" id="DejaVuSans-110"/>
      <path id="DejaVuSans-32"/>
      <path d="M 37.109375 75.984375 
L 37.109375 68.5 
L 28.515625 68.5 
Q 23.6875 68.5 21.796875 66.546875 
Q 19.921875 64.59375 19.921875 59.515625 
L 19.921875 54.6875 
L 34.71875 54.6875 
L 34.71875 47.703125 
L 19.921875 47.703125 
L 19.921875 0 
L 10.890625 0 
L 10.890625 47.703125 
L 2.296875 47.703125 
L 2.296875 54.6875 
L 10.890625 54.6875 
L 10.890625 58.5 
Q 10.890625 67.625 15.140625 71.796875 
Q 19.390625 75.984375 28.609375 75.984375 
z
" id="DejaVuSans-102"/>
      <path d="M 41.109375 46.296875 
Q 39.59375 47.171875 37.8125 47.578125 
Q 36.03125 48 33.890625 48 
Q 26.265625 48 22.1875 43.046875 
Q 18.109375 38.09375 18.109375 28.8125 
L 18.109375 0 
L 9.078125 0 
L 9.078125 54.6875 
L 18.109375 54.6875 
L 18.109375 46.1875 
Q 20.953125 51.171875 25.484375 53.578125 
Q 30.03125 56 36.53125 56 
Q 37.453125 56 38.578125 55.875 
Q 39.703125 55.765625 41.0625 55.515625 
z
" id="DejaVuSans-114"/>
      <path d="M 56.203125 29.59375 
L 56.203125 25.203125 
L 14.890625 25.203125 
Q 15.484375 15.921875 20.484375 11.0625 
Q 25.484375 6.203125 34.421875 6.203125 
Q 39.59375 6.203125 44.453125 7.46875 
Q 49.3125 8.734375 54.109375 11.28125 
L 54.109375 2.78125 
Q 49.265625 0.734375 44.1875 -0.34375 
Q 39.109375 -1.421875 33.890625 -1.421875 
Q 20.796875 -1.421875 13.15625 6.1875 
Q 5.515625 13.8125 5.515625 26.8125 
Q 5.515625 40.234375 12.765625 48.109375 
Q 20.015625 56 32.328125 56 
Q 43.359375 56 49.78125 48.890625 
Q 56.203125 41.796875 56.203125 29.59375 
z
M 47.21875 32.234375 
Q 47.125 39.59375 43.09375 43.984375 
Q 39.0625 48.390625 32.421875 48.390625 
Q 24.90625 48.390625 20.390625 44.140625 
Q 15.875 39.890625 15.1875 32.171875 
z
" id="DejaVuSans-101"/>
      <path d="M 14.796875 27.296875 
Q 14.796875 17.390625 18.875 11.75 
Q 22.953125 6.109375 30.078125 6.109375 
Q 37.203125 6.109375 41.296875 11.75 
Q 45.40625 17.390625 45.40625 27.296875 
Q 45.40625 37.203125 41.296875 42.84375 
Q 37.203125 48.484375 30.078125 48.484375 
Q 22.953125 48.484375 18.875 42.84375 
Q 14.796875 37.203125 14.796875 27.296875 
z
M 45.40625 8.203125 
Q 42.578125 3.328125 38.25 0.953125 
Q 33.9375 -1.421875 27.875 -1.421875 
Q 17.96875 -1.421875 11.734375 6.484375 
Q 5.515625 14.40625 5.515625 27.296875 
Q 5.515625 40.1875 11.734375 48.09375 
Q 17.96875 56 27.875 56 
Q 33.9375 56 38.25 53.625 
Q 42.578125 51.265625 45.40625 46.390625 
L 45.40625 54.6875 
L 54.390625 54.6875 
L 54.390625 -20.796875 
L 45.40625 -20.796875 
z
" id="DejaVuSans-113"/>
      <path d="M 34.28125 27.484375 
Q 23.390625 27.484375 19.1875 25 
Q 14.984375 22.515625 14.984375 16.5 
Q 14.984375 11.71875 18.140625 8.90625 
Q 21.296875 6.109375 26.703125 6.109375 
Q 34.1875 6.109375 38.703125 11.40625 
Q 43.21875 16.703125 43.21875 25.484375 
L 43.21875 27.484375 
z
M 52.203125 31.203125 
L 52.203125 0 
L 43.21875 0 
L 43.21875 8.296875 
Q 40.140625 3.328125 35.546875 0.953125 
Q 30.953125 -1.421875 24.3125 -1.421875 
Q 15.921875 -1.421875 10.953125 3.296875 
Q 6 8.015625 6 15.921875 
Q 6 25.140625 12.171875 29.828125 
Q 18.359375 34.515625 30.609375 34.515625 
L 43.21875 34.515625 
L 43.21875 35.40625 
Q 43.21875 41.609375 39.140625 45 
Q 35.0625 48.390625 27.6875 48.390625 
Q 23 48.390625 18.546875 47.265625 
Q 14.109375 46.140625 10.015625 43.890625 
L 10.015625 52.203125 
Q 14.9375 54.109375 19.578125 55.046875 
Q 24.21875 56 28.609375 56 
Q 40.484375 56 46.34375 49.84375 
Q 52.203125 43.703125 52.203125 31.203125 
z
" id="DejaVuSans-97"/>
      <path d="M 18.3125 70.21875 
L 18.3125 54.6875 
L 36.8125 54.6875 
L 36.8125 47.703125 
L 18.3125 47.703125 
L 18.3125 18.015625 
Q 18.3125 11.328125 20.140625 9.421875 
Q 21.96875 7.515625 27.59375 7.515625 
L 36.8125 7.515625 
L 36.8125 0 
L 27.59375 0 
Q 17.1875 0 13.234375 3.875 
Q 9.28125 7.765625 9.28125 18.015625 
L 9.28125 47.703125 
L 2.6875 47.703125 
L 2.6875 54.6875 
L 9.28125 54.6875 
L 9.28125 70.21875 
z
" id="DejaVuSans-116"/>
      <path d="M 4.203125 54.6875 
L 13.1875 54.6875 
L 24.421875 12.015625 
L 35.59375 54.6875 
L 46.1875 54.6875 
L 57.421875 12.015625 
L 68.609375 54.6875 
L 77.59375 54.6875 
L 63.28125 0 
L 52.6875 0 
L 40.921875 44.828125 
L 29.109375 0 
L 18.5 0 
z
" id="DejaVuSans-119"/>
      <path d="M 54.890625 33.015625 
L 54.890625 0 
L 45.90625 0 
L 45.90625 32.71875 
Q 45.90625 40.484375 42.875 44.328125 
Q 39.84375 48.1875 33.796875 48.1875 
Q 26.515625 48.1875 22.3125 43.546875 
Q 18.109375 38.921875 18.109375 30.90625 
L 18.109375 0 
L 9.078125 0 
L 9.078125 75.984375 
L 18.109375 75.984375 
L 18.109375 46.1875 
Q 21.34375 51.125 25.703125 53.5625 
Q 30.078125 56 35.796875 56 
Q 45.21875 56 50.046875 50.171875 
Q 54.890625 44.34375 54.890625 33.015625 
z
" id="DejaVuSans-104"/>
      <path d="M 48.78125 52.59375 
L 48.78125 44.1875 
Q 44.96875 46.296875 41.140625 47.34375 
Q 37.3125 48.390625 33.40625 48.390625 
Q 24.65625 48.390625 19.8125 42.84375 
Q 14.984375 37.3125 14.984375 27.296875 
Q 14.984375 17.28125 19.8125 11.734375 
Q 24.65625 6.203125 33.40625 6.203125 
Q 37.3125 6.203125 41.140625 7.25 
Q 44.96875 8.296875 48.78125 10.40625 
L 48.78125 2.09375 
Q 45.015625 0.34375 40.984375 -0.53125 
Q 36.96875 -1.421875 32.421875 -1.421875 
Q 20.0625 -1.421875 12.78125 6.34375 
Q 5.515625 14.109375 5.515625 27.296875 
Q 5.515625 40.671875 12.859375 48.328125 
Q 20.21875 56 33.015625 56 
Q 37.15625 56 41.109375 55.140625 
Q 45.0625 54.296875 48.78125 52.59375 
z
" id="DejaVuSans-99"/>
      <path d="M 9.421875 75.984375 
L 18.40625 75.984375 
L 18.40625 0 
L 9.421875 0 
z
" id="DejaVuSans-108"/>
      <path d="M 44.28125 53.078125 
L 44.28125 44.578125 
Q 40.484375 46.53125 36.375 47.5 
Q 32.28125 48.484375 27.875 48.484375 
Q 21.1875 48.484375 17.84375 46.4375 
Q 14.5 44.390625 14.5 40.28125 
Q 14.5 37.15625 16.890625 35.375 
Q 19.28125 33.59375 26.515625 31.984375 
L 29.59375 31.296875 
Q 39.15625 29.25 43.1875 25.515625 
Q 47.21875 21.78125 47.21875 15.09375 
Q 47.21875 7.46875 41.1875 3.015625 
Q 35.15625 -1.421875 24.609375 -1.421875 
Q 20.21875 -1.421875 15.453125 -0.5625 
Q 10.6875 0.296875 5.421875 2 
L 5.421875 11.28125 
Q 10.40625 8.6875 15.234375 7.390625 
Q 20.0625 6.109375 24.8125 6.109375 
Q 31.15625 6.109375 34.5625 8.28125 
Q 37.984375 10.453125 37.984375 14.40625 
Q 37.984375 18.0625 35.515625 20.015625 
Q 33.0625 21.96875 24.703125 23.78125 
L 21.578125 24.515625 
Q 13.234375 26.265625 9.515625 29.90625 
Q 5.8125 33.546875 5.8125 39.890625 
Q 5.8125 47.609375 11.28125 51.796875 
Q 16.75 56 26.8125 56 
Q 31.78125 56 36.171875 55.265625 
Q 40.578125 54.546875 44.28125 53.078125 
z
" id="DejaVuSans-115"/>
      <path d="M 30.609375 48.390625 
Q 23.390625 48.390625 19.1875 42.75 
Q 14.984375 37.109375 14.984375 27.296875 
Q 14.984375 17.484375 19.15625 11.84375 
Q 23.34375 6.203125 30.609375 6.203125 
Q 37.796875 6.203125 41.984375 11.859375 
Q 46.1875 17.53125 46.1875 27.296875 
Q 46.1875 37.015625 41.984375 42.703125 
Q 37.796875 48.390625 30.609375 48.390625 
z
M 30.609375 56 
Q 42.328125 56 49.015625 48.375 
Q 55.71875 40.765625 55.71875 27.296875 
Q 55.71875 13.875 49.015625 6.21875 
Q 42.328125 -1.421875 30.609375 -1.421875 
Q 18.84375 -1.421875 12.171875 6.21875 
Q 5.515625 13.875 5.515625 27.296875 
Q 5.515625 40.765625 12.171875 48.375 
Q 18.84375 56 30.609375 56 
z
" id="DejaVuSans-111"/>
      <path d="M 32.171875 -5.078125 
Q 28.375 -14.84375 24.75 -17.8125 
Q 21.140625 -20.796875 15.09375 -20.796875 
L 7.90625 -20.796875 
L 7.90625 -13.28125 
L 13.1875 -13.28125 
Q 16.890625 -13.28125 18.9375 -11.515625 
Q 21 -9.765625 23.484375 -3.21875 
L 25.09375 0.875 
L 2.984375 54.6875 
L 12.5 54.6875 
L 29.59375 11.921875 
L 46.6875 54.6875 
L 56.203125 54.6875 
z
" id="DejaVuSans-121"/>
     </defs>
     <g transform="translate(290.623295 59.798438)scale(0.1 -0.1)">
      <use xlink:href="#DejaVuSans-109"/>
      <use x="97.412109" xlink:href="#DejaVuSans-105"/>
      <use x="125.195312" xlink:href="#DejaVuSans-110"/>
      <use x="188.574219" xlink:href="#DejaVuSans-32"/>
      <use x="220.361328" xlink:href="#DejaVuSans-102"/>
      <use x="255.566406" xlink:href="#DejaVuSans-114"/>
      <use x="296.648438" xlink:href="#DejaVuSans-101"/>
      <use x="358.171875" xlink:href="#DejaVuSans-113"/>
      <use x="421.648438" xlink:href="#DejaVuSans-46"/>
      <use x="453.435547" xlink:href="#DejaVuSans-32"/>
      <use x="485.222656" xlink:href="#DejaVuSans-97"/>
      <use x="546.501953" xlink:href="#DejaVuSans-116"/>
      <use x="585.710938" xlink:href="#DejaVuSans-32"/>
      <use x="617.498047" xlink:href="#DejaVuSans-119"/>
      <use x="699.285156" xlink:href="#DejaVuSans-104"/>
      <use x="762.664062" xlink:href="#DejaVuSans-105"/>
      <use x="790.447266" xlink:href="#DejaVuSans-99"/>
      <use x="845.427734" xlink:href="#DejaVuSans-104"/>
      <use x="908.806641" xlink:href="#DejaVuSans-32"/>
      <use x="940.59375" xlink:href="#DejaVuSans-97"/>
      <use x="1001.873047" xlink:href="#DejaVuSans-116"/>
      <use x="1041.082031" xlink:href="#DejaVuSans-32"/>
      <use x="1072.869141" xlink:href="#DejaVuSans-108"/>
      <use x="1100.652344" xlink:href="#DejaVuSans-101"/>
      <use x="1162.175781" xlink:href="#DejaVuSans-97"/>
      <use x="1223.455078" xlink:href="#DejaVuSans-115"/>
      <use x="1275.554688" xlink:href="#DejaVuSans-116"/>
      <use x="1314.763672" xlink:href="#DejaVuSans-32"/>
      <use x="1346.550781" xlink:href="#DejaVuSans-111"/>
      <use x="1407.732422" xlink:href="#DejaVuSans-110"/>
      <use x="1471.111328" xlink:href="#DejaVuSans-101"/>
      <use x="1532.634766" xlink:href="#DejaVuSans-32"/>
      <use x="1564.421875" xlink:href="#DejaVuSans-99"/>
      <use x="1619.402344" xlink:href="#DejaVuSans-121"/>
      <use x="1678.582031" xlink:href="#DejaVuSans-99"/>
      <use x="1733.5625" xlink:href="#DejaVuSans-108"/>
      <use x="1761.345703" xlink:href="#DejaVuSans-101"/>
      <use x="1822.869141" xlink:href="#DejaVuSans-32"/>
     </g>
     <!-- fits into the learning window -->
     <defs>
      <path d="M 45.40625 27.984375 
Q 45.40625 37.75 41.375 43.109375 
Q 37.359375 48.484375 30.078125 48.484375 
Q 22.859375 48.484375 18.828125 43.109375 
Q 14.796875 37.75 14.796875 27.984375 
Q 14.796875 18.265625 18.828125 12.890625 
Q 22.859375 7.515625 30.078125 7.515625 
Q 37.359375 7.515625 41.375 12.890625 
Q 45.40625 18.265625 45.40625 27.984375 
z
M 54.390625 6.78125 
Q 54.390625 -7.171875 48.1875 -13.984375 
Q 42 -20.796875 29.203125 -20.796875 
Q 24.46875 -20.796875 20.265625 -20.09375 
Q 16.0625 -19.390625 12.109375 -17.921875 
L 12.109375 -9.1875 
Q 16.0625 -11.328125 19.921875 -12.34375 
Q 23.78125 -13.375 27.78125 -13.375 
Q 36.625 -13.375 41.015625 -8.765625 
Q 45.40625 -4.15625 45.40625 5.171875 
L 45.40625 9.625 
Q 42.625 4.78125 38.28125 2.390625 
Q 33.9375 0 27.875 0 
Q 17.828125 0 11.671875 7.65625 
Q 5.515625 15.328125 5.515625 27.984375 
Q 5.515625 40.671875 11.671875 48.328125 
Q 17.828125 56 27.875 56 
Q 33.9375 56 38.28125 53.609375 
Q 42.625 51.21875 45.40625 46.390625 
L 45.40625 54.6875 
L 54.390625 54.6875 
z
" id="DejaVuSans-103"/>
      <path d="M 45.40625 46.390625 
L 45.40625 75.984375 
L 54.390625 75.984375 
L 54.390625 0 
L 45.40625 0 
L 45.40625 8.203125 
Q 42.578125 3.328125 38.25 0.953125 
Q 33.9375 -1.421875 27.875 -1.421875 
Q 17.96875 -1.421875 11.734375 6.484375 
Q 5.515625 14.40625 5.515625 27.296875 
Q 5.515625 40.1875 11.734375 48.09375 
Q 17.96875 56 27.875 56 
Q 33.9375 56 38.25 53.625 
Q 42.578125 51.265625 45.40625 46.390625 
z
M 14.796875 27.296875 
Q 14.796875 17.390625 18.875 11.75 
Q 22.953125 6.109375 30.078125 6.109375 
Q 37.203125 6.109375 41.296875 11.75 
Q 45.40625 17.390625 45.40625 27.296875 
Q 45.40625 37.203125 41.296875 42.84375 
Q 37.203125 48.484375 30.078125 48.484375 
Q 22.953125 48.484375 18.875 42.84375 
Q 14.796875 37.203125 14.796875 27.296875 
z
" id="DejaVuSans-100"/>
     </defs>
     <g transform="translate(290.623295 70.99625)scale(0.1 -0.1)">
      <use xlink:href="#DejaVuSans-102"/>
      <use x="35.205078" xlink:href="#DejaVuSans-105"/>
      <use x="62.988281" xlink:href="#DejaVuSans-116"/>
      <use x="102.197266" xlink:href="#DejaVuSans-115"/>
      <use x="154.296875" xlink:href="#DejaVuSans-32"/>
      <use x="186.083984" xlink:href="#DejaVuSans-105"/>
      <use x="213.867188" xlink:href="#DejaVuSans-110"/>
      <use x="277.246094" xlink:href="#DejaVuSans-116"/>
      <use x="316.455078" xlink:href="#DejaVuSans-111"/>
      <use x="377.636719" xlink:href="#DejaVuSans-32"/>
      <use x="409.423828" xlink:href="#DejaVuSans-116"/>
      <use x="448.632812" xlink:href="#DejaVuSans-104"/>
      <use x="512.011719" xlink:href="#DejaVuSans-101"/>
      <use x="573.535156" xlink:href="#DejaVuSans-32"/>
      <use x="605.322266" xlink:href="#DejaVuSans-108"/>
      <use x="633.105469" xlink:href="#DejaVuSans-101"/>
      <use x="694.628906" xlink:href="#DejaVuSans-97"/>
      <use x="755.908203" xlink:href="#DejaVuSans-114"/>
      <use x="797.005859" xlink:href="#DejaVuSans-110"/>
      <use x="860.384766" xlink:href="#DejaVuSans-105"/>
      <use x="888.167969" xlink:href="#DejaVuSans-110"/>
      <use x="951.546875" xlink:href="#DejaVuSans-103"/>
      <use x="1015.023438" xlink:href="#DejaVuSans-32"/>
      <use x="1046.810547" xlink:href="#DejaVuSans-119"/>
      <use x="1128.597656" xlink:href="#DejaVuSans-105"/>
      <use x="1156.380859" xlink:href="#DejaVuSans-110"/>
      <use x="1219.759766" xlink:href="#DejaVuSans-100"/>
      <use x="1283.236328" xlink:href="#DejaVuSans-111"/>
      <use x="1344.417969" xlink:href="#DejaVuSans-119"/>
     </g>
    </g>
    <g id="line2d_16">
     <path d="M 262.623295 88.952188 
L 282.623295 88.952188 
" style="fill:none;stroke:#ff0000;stroke-dasharray:1.5,2.475;stroke-dashoffset:0;stroke-width:1.5;"/>
    </g>
    <g id="line2d_17"/>
    <g id="text_20">
     <!-- maximum im_size for which each spike  -->
     <defs>
      <path d="M 54.890625 54.6875 
L 35.109375 28.078125 
L 55.90625 0 
L 45.3125 0 
L 29.390625 21.484375 
L 13.484375 0 
L 2.875 0 
L 24.125 28.609375 
L 4.6875 54.6875 
L 15.28125 54.6875 
L 29.78125 35.203125 
L 44.28125 54.6875 
z
" id="DejaVuSans-120"/>
      <path d="M 8.5 21.578125 
L 8.5 54.6875 
L 17.484375 54.6875 
L 17.484375 21.921875 
Q 17.484375 14.15625 20.5 10.265625 
Q 23.53125 6.390625 29.59375 6.390625 
Q 36.859375 6.390625 41.078125 11.03125 
Q 45.3125 15.671875 45.3125 23.6875 
L 45.3125 54.6875 
L 54.296875 54.6875 
L 54.296875 0 
L 45.3125 0 
L 45.3125 8.40625 
Q 42.046875 3.421875 37.71875 1 
Q 33.40625 -1.421875 27.6875 -1.421875 
Q 18.265625 -1.421875 13.375 4.4375 
Q 8.5 10.296875 8.5 21.578125 
z
M 31.109375 56 
z
" id="DejaVuSans-117"/>
      <path d="M 50.984375 -16.609375 
L 50.984375 -23.578125 
L -0.984375 -23.578125 
L -0.984375 -16.609375 
z
" id="DejaVuSans-95"/>
      <path d="M 5.515625 54.6875 
L 48.1875 54.6875 
L 48.1875 46.484375 
L 14.40625 7.171875 
L 48.1875 7.171875 
L 48.1875 0 
L 4.296875 0 
L 4.296875 8.203125 
L 38.09375 47.515625 
L 5.515625 47.515625 
z
" id="DejaVuSans-122"/>
      <path d="M 18.109375 8.203125 
L 18.109375 -20.796875 
L 9.078125 -20.796875 
L 9.078125 54.6875 
L 18.109375 54.6875 
L 18.109375 46.390625 
Q 20.953125 51.265625 25.265625 53.625 
Q 29.59375 56 35.59375 56 
Q 45.5625 56 51.78125 48.09375 
Q 58.015625 40.1875 58.015625 27.296875 
Q 58.015625 14.40625 51.78125 6.484375 
Q 45.5625 -1.421875 35.59375 -1.421875 
Q 29.59375 -1.421875 25.265625 0.953125 
Q 20.953125 3.328125 18.109375 8.203125 
z
M 48.6875 27.296875 
Q 48.6875 37.203125 44.609375 42.84375 
Q 40.53125 48.484375 33.40625 48.484375 
Q 26.265625 48.484375 22.1875 42.84375 
Q 18.109375 37.203125 18.109375 27.296875 
Q 18.109375 17.390625 22.1875 11.75 
Q 26.265625 6.109375 33.40625 6.109375 
Q 40.53125 6.109375 44.609375 11.75 
Q 48.6875 17.390625 48.6875 27.296875 
z
" id="DejaVuSans-112"/>
      <path d="M 9.078125 75.984375 
L 18.109375 75.984375 
L 18.109375 31.109375 
L 44.921875 54.6875 
L 56.390625 54.6875 
L 27.390625 29.109375 
L 57.625 0 
L 45.90625 0 
L 18.109375 26.703125 
L 18.109375 0 
L 9.078125 0 
z
" id="DejaVuSans-107"/>
     </defs>
     <g transform="translate(290.623295 85.674375)scale(0.1 -0.1)">
      <use xlink:href="#DejaVuSans-109"/>
      <use x="97.412109" xlink:href="#DejaVuSans-97"/>
      <use x="158.691406" xlink:href="#DejaVuSans-120"/>
      <use x="217.871094" xlink:href="#DejaVuSans-105"/>
      <use x="245.654297" xlink:href="#DejaVuSans-109"/>
      <use x="343.066406" xlink:href="#DejaVuSans-117"/>
      <use x="406.445312" xlink:href="#DejaVuSans-109"/>
      <use x="503.857422" xlink:href="#DejaVuSans-32"/>
      <use x="535.644531" xlink:href="#DejaVuSans-105"/>
      <use x="563.427734" xlink:href="#DejaVuSans-109"/>
      <use x="660.839844" xlink:href="#DejaVuSans-95"/>
      <use x="710.839844" xlink:href="#DejaVuSans-115"/>
      <use x="762.939453" xlink:href="#DejaVuSans-105"/>
      <use x="790.722656" xlink:href="#DejaVuSans-122"/>
      <use x="843.212891" xlink:href="#DejaVuSans-101"/>
      <use x="904.736328" xlink:href="#DejaVuSans-32"/>
      <use x="936.523438" xlink:href="#DejaVuSans-102"/>
      <use x="971.728516" xlink:href="#DejaVuSans-111"/>
      <use x="1032.910156" xlink:href="#DejaVuSans-114"/>
      <use x="1074.023438" xlink:href="#DejaVuSans-32"/>
      <use x="1105.810547" xlink:href="#DejaVuSans-119"/>
      <use x="1187.597656" xlink:href="#DejaVuSans-104"/>
      <use x="1250.976562" xlink:href="#DejaVuSans-105"/>
      <use x="1278.759766" xlink:href="#DejaVuSans-99"/>
      <use x="1333.740234" xlink:href="#DejaVuSans-104"/>
      <use x="1397.119141" xlink:href="#DejaVuSans-32"/>
      <use x="1428.90625" xlink:href="#DejaVuSans-101"/>
      <use x="1490.429688" xlink:href="#DejaVuSans-97"/>
      <use x="1551.708984" xlink:href="#DejaVuSans-99"/>
      <use x="1606.689453" xlink:href="#DejaVuSans-104"/>
      <use x="1670.068359" xlink:href="#DejaVuSans-32"/>
      <use x="1701.855469" xlink:href="#DejaVuSans-115"/>
      <use x="1753.955078" xlink:href="#DejaVuSans-112"/>
      <use x="1817.431641" xlink:href="#DejaVuSans-105"/>
      <use x="1845.214844" xlink:href="#DejaVuSans-107"/>
      <use x="1903.078125" xlink:href="#DejaVuSans-101"/>
      <use x="1964.601562" xlink:href="#DejaVuSans-32"/>
     </g>
     <!-- can get encoded with uniquely timed spike -->
     <g transform="translate(290.623295 97.150313)scale(0.1 -0.1)">
      <use xlink:href="#DejaVuSans-99"/>
      <use x="54.980469" xlink:href="#DejaVuSans-97"/>
      <use x="116.259766" xlink:href="#DejaVuSans-110"/>
      <use x="179.638672" xlink:href="#DejaVuSans-32"/>
      <use x="211.425781" xlink:href="#DejaVuSans-103"/>
      <use x="274.902344" xlink:href="#DejaVuSans-101"/>
      <use x="336.425781" xlink:href="#DejaVuSans-116"/>
      <use x="375.634766" xlink:href="#DejaVuSans-32"/>
      <use x="407.421875" xlink:href="#DejaVuSans-101"/>
      <use x="468.945312" xlink:href="#DejaVuSans-110"/>
      <use x="532.324219" xlink:href="#DejaVuSans-99"/>
      <use x="587.304688" xlink:href="#DejaVuSans-111"/>
      <use x="648.486328" xlink:href="#DejaVuSans-100"/>
      <use x="711.962891" xlink:href="#DejaVuSans-101"/>
      <use x="773.486328" xlink:href="#DejaVuSans-100"/>
      <use x="836.962891" xlink:href="#DejaVuSans-32"/>
      <use x="868.75" xlink:href="#DejaVuSans-119"/>
      <use x="950.537109" xlink:href="#DejaVuSans-105"/>
      <use x="978.320312" xlink:href="#DejaVuSans-116"/>
      <use x="1017.529297" xlink:href="#DejaVuSans-104"/>
      <use x="1080.908203" xlink:href="#DejaVuSans-32"/>
      <use x="1112.695312" xlink:href="#DejaVuSans-117"/>
      <use x="1176.074219" xlink:href="#DejaVuSans-110"/>
      <use x="1239.453125" xlink:href="#DejaVuSans-105"/>
      <use x="1267.236328" xlink:href="#DejaVuSans-113"/>
      <use x="1330.712891" xlink:href="#DejaVuSans-117"/>
      <use x="1394.091797" xlink:href="#DejaVuSans-101"/>
      <use x="1455.615234" xlink:href="#DejaVuSans-108"/>
      <use x="1483.398438" xlink:href="#DejaVuSans-121"/>
      <use x="1542.578125" xlink:href="#DejaVuSans-32"/>
      <use x="1574.365234" xlink:href="#DejaVuSans-116"/>
      <use x="1613.574219" xlink:href="#DejaVuSans-105"/>
      <use x="1641.357422" xlink:href="#DejaVuSans-109"/>
      <use x="1738.769531" xlink:href="#DejaVuSans-101"/>
      <use x="1800.292969" xlink:href="#DejaVuSans-100"/>
      <use x="1863.769531" xlink:href="#DejaVuSans-32"/>
      <use x="1895.556641" xlink:href="#DejaVuSans-115"/>
      <use x="1947.65625" xlink:href="#DejaVuSans-112"/>
      <use x="2011.132812" xlink:href="#DejaVuSans-105"/>
      <use x="2038.916016" xlink:href="#DejaVuSans-107"/>
      <use x="2096.779297" xlink:href="#DejaVuSans-101"/>
     </g>
    </g>
   </g>
  </g>
  <g id="axes_2">
   <g id="patch_8">
    <path d="M 591.545455 315 
L 972 315 
L 972 43.2 
L 591.545455 43.2 
z
" style="fill:#ffffff;"/>
   </g>
   <g id="matplotlib.axis_3">
    <g id="xtick_7">
     <g id="line2d_18">
      <g>
       <use style="stroke:#000000;stroke-width:0.8;" x="591.545455" xlink:href="#mb8a37292b8" y="315"/>
      </g>
     </g>
     <g id="text_21">
      <!-- 0 -->
      <g transform="translate(588.364205 329.598437)scale(0.1 -0.1)">
       <use xlink:href="#DejaVuSans-48"/>
      </g>
     </g>
    </g>
    <g id="xtick_8">
     <g id="line2d_19">
      <g>
       <use style="stroke:#000000;stroke-width:0.8;" x="639.102273" xlink:href="#mb8a37292b8" y="315"/>
      </g>
     </g>
     <g id="text_22">
      <!-- 2500 -->
      <g transform="translate(626.377273 329.598437)scale(0.1 -0.1)">
       <use xlink:href="#DejaVuSans-50"/>
       <use x="63.623047" xlink:href="#DejaVuSans-53"/>
       <use x="127.246094" xlink:href="#DejaVuSans-48"/>
       <use x="190.869141" xlink:href="#DejaVuSans-48"/>
      </g>
     </g>
    </g>
    <g id="xtick_9">
     <g id="line2d_20">
      <g>
       <use style="stroke:#000000;stroke-width:0.8;" x="686.659091" xlink:href="#mb8a37292b8" y="315"/>
      </g>
     </g>
     <g id="text_23">
      <!-- 5000 -->
      <g transform="translate(673.934091 329.598437)scale(0.1 -0.1)">
       <use xlink:href="#DejaVuSans-53"/>
       <use x="63.623047" xlink:href="#DejaVuSans-48"/>
       <use x="127.246094" xlink:href="#DejaVuSans-48"/>
       <use x="190.869141" xlink:href="#DejaVuSans-48"/>
      </g>
     </g>
    </g>
    <g id="xtick_10">
     <g id="line2d_21">
      <g>
       <use style="stroke:#000000;stroke-width:0.8;" x="734.215909" xlink:href="#mb8a37292b8" y="315"/>
      </g>
     </g>
     <g id="text_24">
      <!-- 7500 -->
      <defs>
       <path d="M 8.203125 72.90625 
L 55.078125 72.90625 
L 55.078125 68.703125 
L 28.609375 0 
L 18.3125 0 
L 43.21875 64.59375 
L 8.203125 64.59375 
z
" id="DejaVuSans-55"/>
      </defs>
      <g transform="translate(721.490909 329.598437)scale(0.1 -0.1)">
       <use xlink:href="#DejaVuSans-55"/>
       <use x="63.623047" xlink:href="#DejaVuSans-53"/>
       <use x="127.246094" xlink:href="#DejaVuSans-48"/>
       <use x="190.869141" xlink:href="#DejaVuSans-48"/>
      </g>
     </g>
    </g>
    <g id="xtick_11">
     <g id="line2d_22">
      <g>
       <use style="stroke:#000000;stroke-width:0.8;" x="781.772727" xlink:href="#mb8a37292b8" y="315"/>
      </g>
     </g>
     <g id="text_25">
      <!-- 10000 -->
      <g transform="translate(765.866477 329.598437)scale(0.1 -0.1)">
       <use xlink:href="#DejaVuSans-49"/>
       <use x="63.623047" xlink:href="#DejaVuSans-48"/>
       <use x="127.246094" xlink:href="#DejaVuSans-48"/>
       <use x="190.869141" xlink:href="#DejaVuSans-48"/>
       <use x="254.492188" xlink:href="#DejaVuSans-48"/>
      </g>
     </g>
    </g>
    <g id="xtick_12">
     <g id="line2d_23">
      <g>
       <use style="stroke:#000000;stroke-width:0.8;" x="829.329545" xlink:href="#mb8a37292b8" y="315"/>
      </g>
     </g>
     <g id="text_26">
      <!-- 12500 -->
      <g transform="translate(813.423295 329.598437)scale(0.1 -0.1)">
       <use xlink:href="#DejaVuSans-49"/>
       <use x="63.623047" xlink:href="#DejaVuSans-50"/>
       <use x="127.246094" xlink:href="#DejaVuSans-53"/>
       <use x="190.869141" xlink:href="#DejaVuSans-48"/>
       <use x="254.492188" xlink:href="#DejaVuSans-48"/>
      </g>
     </g>
    </g>
    <g id="xtick_13">
     <g id="line2d_24">
      <g>
       <use style="stroke:#000000;stroke-width:0.8;" x="876.886364" xlink:href="#mb8a37292b8" y="315"/>
      </g>
     </g>
     <g id="text_27">
      <!-- 15000 -->
      <g transform="translate(860.980114 329.598437)scale(0.1 -0.1)">
       <use xlink:href="#DejaVuSans-49"/>
       <use x="63.623047" xlink:href="#DejaVuSans-53"/>
       <use x="127.246094" xlink:href="#DejaVuSans-48"/>
       <use x="190.869141" xlink:href="#DejaVuSans-48"/>
       <use x="254.492188" xlink:href="#DejaVuSans-48"/>
      </g>
     </g>
    </g>
    <g id="xtick_14">
     <g id="line2d_25">
      <g>
       <use style="stroke:#000000;stroke-width:0.8;" x="924.443182" xlink:href="#mb8a37292b8" y="315"/>
      </g>
     </g>
     <g id="text_28">
      <!-- 17500 -->
      <g transform="translate(908.536932 329.598437)scale(0.1 -0.1)">
       <use xlink:href="#DejaVuSans-49"/>
       <use x="63.623047" xlink:href="#DejaVuSans-55"/>
       <use x="127.246094" xlink:href="#DejaVuSans-53"/>
       <use x="190.869141" xlink:href="#DejaVuSans-48"/>
       <use x="254.492188" xlink:href="#DejaVuSans-48"/>
      </g>
     </g>
    </g>
    <g id="xtick_15">
     <g id="line2d_26">
      <g>
       <use style="stroke:#000000;stroke-width:0.8;" x="972" xlink:href="#mb8a37292b8" y="315"/>
      </g>
     </g>
     <g id="text_29">
      <!-- 20000 -->
      <g transform="translate(956.09375 329.598437)scale(0.1 -0.1)">
       <use xlink:href="#DejaVuSans-50"/>
       <use x="63.623047" xlink:href="#DejaVuSans-48"/>
       <use x="127.246094" xlink:href="#DejaVuSans-48"/>
       <use x="190.869141" xlink:href="#DejaVuSans-48"/>
       <use x="254.492188" xlink:href="#DejaVuSans-48"/>
      </g>
     </g>
    </g>
    <g id="text_30">
     <!-- Cycle length, samples -->
     <defs>
      <path d="M 67 4 
Q 61.8125 1.3125 56.203125 -0.046875 
Q 50.59375 -1.421875 44.484375 -1.421875 
Q 26.265625 -1.421875 15.625 8.765625 
Q 4.984375 18.953125 4.984375 36.375 
Q 4.984375 53.859375 15.625 64.03125 
Q 26.265625 74.21875 44.484375 74.21875 
Q 50.59375 74.21875 56.203125 72.84375 
Q 61.8125 71.484375 67 68.796875 
L 67 53.71875 
Q 61.765625 57.28125 56.6875 58.9375 
Q 51.609375 60.59375 46 60.59375 
Q 35.9375 60.59375 30.171875 54.140625 
Q 24.421875 47.703125 24.421875 36.375 
Q 24.421875 25.09375 30.171875 18.640625 
Q 35.9375 12.203125 46 12.203125 
Q 51.609375 12.203125 56.6875 13.859375 
Q 61.765625 15.53125 67 19.09375 
z
" id="DejaVuSans-Bold-67"/>
      <path d="M 27.484375 70.21875 
L 27.484375 54.6875 
L 45.515625 54.6875 
L 45.515625 42.1875 
L 27.484375 42.1875 
L 27.484375 19 
Q 27.484375 15.1875 29 13.84375 
Q 30.515625 12.5 35.015625 12.5 
L 44 12.5 
L 44 0 
L 29 0 
Q 18.65625 0 14.328125 4.3125 
Q 10.015625 8.640625 10.015625 19 
L 10.015625 42.1875 
L 1.3125 42.1875 
L 1.3125 54.6875 
L 10.015625 54.6875 
L 10.015625 70.21875 
z
" id="DejaVuSans-Bold-116"/>
      <path d="M 63.375 33.296875 
L 63.375 0 
L 45.796875 0 
L 45.796875 5.421875 
L 45.796875 25.390625 
Q 45.796875 32.5625 45.484375 35.25 
Q 45.171875 37.9375 44.390625 39.203125 
Q 43.359375 40.921875 41.59375 41.875 
Q 39.84375 42.828125 37.59375 42.828125 
Q 32.125 42.828125 29 38.59375 
Q 25.875 34.375 25.875 26.90625 
L 25.875 0 
L 8.40625 0 
L 8.40625 75.984375 
L 25.875 75.984375 
L 25.875 46.6875 
Q 29.828125 51.46875 34.265625 53.734375 
Q 38.71875 56 44.09375 56 
Q 53.5625 56 58.46875 50.1875 
Q 63.375 44.390625 63.375 33.296875 
z
" id="DejaVuSans-Bold-104"/>
     </defs>
     <g transform="translate(719.98054 343.276563)scale(0.1 -0.1)">
      <use xlink:href="#DejaVuSans-Bold-67"/>
      <use x="73.388672" xlink:href="#DejaVuSans-Bold-121"/>
      <use x="138.574219" xlink:href="#DejaVuSans-Bold-99"/>
      <use x="197.851562" xlink:href="#DejaVuSans-Bold-108"/>
      <use x="232.128906" xlink:href="#DejaVuSans-Bold-101"/>
      <use x="299.951172" xlink:href="#DejaVuSans-Bold-32"/>
      <use x="334.765625" xlink:href="#DejaVuSans-Bold-108"/>
      <use x="369.042969" xlink:href="#DejaVuSans-Bold-101"/>
      <use x="436.865234" xlink:href="#DejaVuSans-Bold-110"/>
      <use x="508.056641" xlink:href="#DejaVuSans-Bold-103"/>
      <use x="579.638672" xlink:href="#DejaVuSans-Bold-116"/>
      <use x="627.441406" xlink:href="#DejaVuSans-Bold-104"/>
      <use x="698.632812" xlink:href="#DejaVuSans-Bold-44"/>
      <use x="736.621094" xlink:href="#DejaVuSans-Bold-32"/>
      <use x="771.435547" xlink:href="#DejaVuSans-Bold-115"/>
      <use x="830.957031" xlink:href="#DejaVuSans-Bold-97"/>
      <use x="898.4375" xlink:href="#DejaVuSans-Bold-109"/>
      <use x="1002.636719" xlink:href="#DejaVuSans-Bold-112"/>
      <use x="1074.21875" xlink:href="#DejaVuSans-Bold-108"/>
      <use x="1108.496094" xlink:href="#DejaVuSans-Bold-101"/>
      <use x="1176.318359" xlink:href="#DejaVuSans-Bold-115"/>
     </g>
    </g>
   </g>
   <g id="matplotlib.axis_4">
    <g id="ytick_6">
     <g id="line2d_27">
      <g>
       <use style="stroke:#000000;stroke-width:0.8;" x="591.545455" xlink:href="#mbcd68df5e5" y="307.698438"/>
      </g>
     </g>
     <g id="text_31">
      <!-- 0 -->
      <g transform="translate(578.182955 311.497657)scale(0.1 -0.1)">
       <use xlink:href="#DejaVuSans-48"/>
      </g>
     </g>
    </g>
    <g id="ytick_7">
     <g id="line2d_28">
      <g>
       <use style="stroke:#000000;stroke-width:0.8;" x="591.545455" xlink:href="#mbcd68df5e5" y="257.1686"/>
      </g>
     </g>
     <g id="text_32">
      <!-- 10 -->
      <g transform="translate(571.820455 260.967819)scale(0.1 -0.1)">
       <use xlink:href="#DejaVuSans-49"/>
       <use x="63.623047" xlink:href="#DejaVuSans-48"/>
      </g>
     </g>
    </g>
    <g id="ytick_8">
     <g id="line2d_29">
      <g>
       <use style="stroke:#000000;stroke-width:0.8;" x="591.545455" xlink:href="#mbcd68df5e5" y="206.638762"/>
      </g>
     </g>
     <g id="text_33">
      <!-- 20 -->
      <g transform="translate(571.820455 210.437981)scale(0.1 -0.1)">
       <use xlink:href="#DejaVuSans-50"/>
       <use x="63.623047" xlink:href="#DejaVuSans-48"/>
      </g>
     </g>
    </g>
    <g id="ytick_9">
     <g id="line2d_30">
      <g>
       <use style="stroke:#000000;stroke-width:0.8;" x="591.545455" xlink:href="#mbcd68df5e5" y="156.108924"/>
      </g>
     </g>
     <g id="text_34">
      <!-- 30 -->
      <g transform="translate(571.820455 159.908142)scale(0.1 -0.1)">
       <use xlink:href="#DejaVuSans-51"/>
       <use x="63.623047" xlink:href="#DejaVuSans-48"/>
      </g>
     </g>
    </g>
    <g id="ytick_10">
     <g id="line2d_31">
      <g>
       <use style="stroke:#000000;stroke-width:0.8;" x="591.545455" xlink:href="#mbcd68df5e5" y="105.579085"/>
      </g>
     </g>
     <g id="text_35">
      <!-- 40 -->
      <g transform="translate(571.820455 109.378304)scale(0.1 -0.1)">
       <use xlink:href="#DejaVuSans-52"/>
       <use x="63.623047" xlink:href="#DejaVuSans-48"/>
      </g>
     </g>
    </g>
    <g id="ytick_11">
     <g id="line2d_32">
      <g>
       <use style="stroke:#000000;stroke-width:0.8;" x="591.545455" xlink:href="#mbcd68df5e5" y="55.049247"/>
      </g>
     </g>
     <g id="text_36">
      <!-- 50 -->
      <g transform="translate(571.820455 58.848466)scale(0.1 -0.1)">
       <use xlink:href="#DejaVuSans-53"/>
       <use x="63.623047" xlink:href="#DejaVuSans-48"/>
      </g>
     </g>
    </g>
    <g id="text_37">
     <!-- sinusoid frequency, Hz -->
     <g transform="translate(565.662642 243.426562)rotate(-90)scale(0.1 -0.1)">
      <use xlink:href="#DejaVuSans-Bold-115"/>
      <use x="59.521484" xlink:href="#DejaVuSans-Bold-105"/>
      <use x="93.798828" xlink:href="#DejaVuSans-Bold-110"/>
      <use x="164.990234" xlink:href="#DejaVuSans-Bold-117"/>
      <use x="236.181641" xlink:href="#DejaVuSans-Bold-115"/>
      <use x="295.703125" xlink:href="#DejaVuSans-Bold-111"/>
      <use x="364.404297" xlink:href="#DejaVuSans-Bold-105"/>
      <use x="398.681641" xlink:href="#DejaVuSans-Bold-100"/>
      <use x="470.263672" xlink:href="#DejaVuSans-Bold-32"/>
      <use x="505.078125" xlink:href="#DejaVuSans-Bold-102"/>
      <use x="548.583984" xlink:href="#DejaVuSans-Bold-114"/>
      <use x="597.900391" xlink:href="#DejaVuSans-Bold-101"/>
      <use x="665.722656" xlink:href="#DejaVuSans-Bold-113"/>
      <use x="737.304688" xlink:href="#DejaVuSans-Bold-117"/>
      <use x="808.496094" xlink:href="#DejaVuSans-Bold-101"/>
      <use x="876.318359" xlink:href="#DejaVuSans-Bold-110"/>
      <use x="947.509766" xlink:href="#DejaVuSans-Bold-99"/>
      <use x="1006.787109" xlink:href="#DejaVuSans-Bold-121"/>
      <use x="1071.863281" xlink:href="#DejaVuSans-Bold-44"/>
      <use x="1109.851562" xlink:href="#DejaVuSans-Bold-32"/>
      <use x="1144.666016" xlink:href="#DejaVuSans-Bold-72"/>
      <use x="1228.357422" xlink:href="#DejaVuSans-Bold-122"/>
     </g>
    </g>
   </g>
   <g id="line2d_33">
    <path clip-path="url(#p2b6e9fd367)" d="M 1081 288.058516 
L 1055.509773 286.981205 
L 1023.874977 285.46531 
L 996.273 283.949414 
L 972 282.433519 
L 950.44725 280.917624 
L 925.261159 278.896431 
L 903.385023 276.875237 
L 884.191091 274.854044 
L 867.222818 272.83285 
L 852.118773 270.811656 
L 838.593614 268.790463 
L 826.381023 266.769269 
L 812.722705 264.242777 
L 800.586205 261.716286 
L 789.686182 259.189794 
L 779.870455 256.663302 
L 770.986841 254.13681 
L 762.921205 251.610318 
L 755.521364 249.083826 
L 747.455727 246.052036 
L 740.151 243.020245 
L 734.558318 240.493753 
L 728.394955 237.461963 
L 723.639273 234.935471 
L 718.350955 231.903681 
L 712.701205 228.366592 
L 707.527023 224.829504 
L 702.771341 221.292415 
L 698.396114 217.755326 
L 693.811636 213.712939 
L 690.102205 210.175851 
L 686.659091 206.638762 
L 682.987705 202.596375 
L 679.601659 198.553988 
L 675.340568 192.995706 
L 673.171977 189.963915 
L 669.177205 183.900335 
L 664.421523 175.815561 
L 662.252932 171.773173 
L 659.970205 167.225488 
L 657.364091 161.667206 
L 654.738955 155.603625 
L 651.923591 148.529448 
L 649.184318 140.949972 
L 646.045568 131.349303 
L 642.811705 120.232738 
L 639.330545 106.589682 
L 635.773295 90.420134 
L 631.493182 67.176408 
L 629.667 55.554545 
L 629.667 55.554545 
" style="fill:none;stroke:#1f77b4;stroke-linecap:square;stroke-width:1.5;"/>
   </g>
   <g id="line2d_34">
    <path clip-path="url(#p2b6e9fd367)" d="M 781.772727 302.645455 
L 781.772727 55.554545 
L 781.772727 55.554545 
" style="fill:none;stroke:#ff7f0e;stroke-linecap:square;stroke-width:1.5;"/>
   </g>
   <g id="line2d_35">
    <path clip-path="url(#p2b6e9fd367)" d="M 591.545455 257.1686 
L 972 257.1686 
" style="fill:none;stroke:#808080;stroke-dasharray:1.5,2.475;stroke-dashoffset:0;stroke-width:1.5;"/>
   </g>
   <g id="patch_9">
    <path d="M 591.545455 315 
L 591.545455 43.2 
" style="fill:none;stroke:#000000;stroke-linecap:square;stroke-linejoin:miter;stroke-width:0.8;"/>
   </g>
   <g id="patch_10">
    <path d="M 972 315 
L 972 43.2 
" style="fill:none;stroke:#000000;stroke-linecap:square;stroke-linejoin:miter;stroke-width:0.8;"/>
   </g>
   <g id="patch_11">
    <path d="M 591.545455 315 
L 972 315 
" style="fill:none;stroke:#000000;stroke-linecap:square;stroke-linejoin:miter;stroke-width:0.8;"/>
   </g>
   <g id="patch_12">
    <path d="M 591.545455 43.2 
L 972 43.2 
" style="fill:none;stroke:#000000;stroke-linecap:square;stroke-linejoin:miter;stroke-width:0.8;"/>
   </g>
   <g id="legend_2">
    <g id="patch_13">
     <path d="M 747.539062 106.432187 
L 965 106.432187 
Q 967 106.432187 967 104.432187 
L 967 50.2 
Q 967 48.2 965 48.2 
L 747.539062 48.2 
Q 745.539062 48.2 745.539062 50.2 
L 745.539062 104.432187 
Q 745.539062 106.432187 747.539062 106.432187 
z
" style="fill:#ffffff;opacity:0.8;stroke:#cccccc;stroke-linejoin:miter;"/>
    </g>
    <g id="line2d_36">
     <path d="M 749.539062 56.298437 
L 769.539062 56.298437 
" style="fill:none;stroke:#1f77b4;stroke-linecap:square;stroke-width:1.5;"/>
    </g>
    <g id="line2d_37"/>
    <g id="text_38">
     <!-- length of one cycle -->
     <g transform="translate(777.539062 59.798437)scale(0.1 -0.1)">
      <use xlink:href="#DejaVuSans-108"/>
      <use x="27.783203" xlink:href="#DejaVuSans-101"/>
      <use x="89.306641" xlink:href="#DejaVuSans-110"/>
      <use x="152.685547" xlink:href="#DejaVuSans-103"/>
      <use x="216.162109" xlink:href="#DejaVuSans-116"/>
      <use x="255.371094" xlink:href="#DejaVuSans-104"/>
      <use x="318.75" xlink:href="#DejaVuSans-32"/>
      <use x="350.537109" xlink:href="#DejaVuSans-111"/>
      <use x="411.71875" xlink:href="#DejaVuSans-102"/>
      <use x="446.923828" xlink:href="#DejaVuSans-32"/>
      <use x="478.710938" xlink:href="#DejaVuSans-111"/>
      <use x="539.892578" xlink:href="#DejaVuSans-110"/>
      <use x="603.271484" xlink:href="#DejaVuSans-101"/>
      <use x="664.794922" xlink:href="#DejaVuSans-32"/>
      <use x="696.582031" xlink:href="#DejaVuSans-99"/>
      <use x="751.5625" xlink:href="#DejaVuSans-121"/>
      <use x="810.742188" xlink:href="#DejaVuSans-99"/>
      <use x="865.722656" xlink:href="#DejaVuSans-108"/>
      <use x="893.505859" xlink:href="#DejaVuSans-101"/>
     </g>
    </g>
    <g id="line2d_38">
     <path d="M 749.539062 70.976562 
L 769.539062 70.976562 
" style="fill:none;stroke:#ff7f0e;stroke-linecap:square;stroke-width:1.5;"/>
    </g>
    <g id="line2d_39"/>
    <g id="text_39">
     <!-- number of samples in one window -->
     <defs>
      <path d="M 48.6875 27.296875 
Q 48.6875 37.203125 44.609375 42.84375 
Q 40.53125 48.484375 33.40625 48.484375 
Q 26.265625 48.484375 22.1875 42.84375 
Q 18.109375 37.203125 18.109375 27.296875 
Q 18.109375 17.390625 22.1875 11.75 
Q 26.265625 6.109375 33.40625 6.109375 
Q 40.53125 6.109375 44.609375 11.75 
Q 48.6875 17.390625 48.6875 27.296875 
z
M 18.109375 46.390625 
Q 20.953125 51.265625 25.265625 53.625 
Q 29.59375 56 35.59375 56 
Q 45.5625 56 51.78125 48.09375 
Q 58.015625 40.1875 58.015625 27.296875 
Q 58.015625 14.40625 51.78125 6.484375 
Q 45.5625 -1.421875 35.59375 -1.421875 
Q 29.59375 -1.421875 25.265625 0.953125 
Q 20.953125 3.328125 18.109375 8.203125 
L 18.109375 0 
L 9.078125 0 
L 9.078125 75.984375 
L 18.109375 75.984375 
z
" id="DejaVuSans-98"/>
     </defs>
     <g transform="translate(777.539062 74.476562)scale(0.1 -0.1)">
      <use xlink:href="#DejaVuSans-110"/>
      <use x="63.378906" xlink:href="#DejaVuSans-117"/>
      <use x="126.757812" xlink:href="#DejaVuSans-109"/>
      <use x="224.169922" xlink:href="#DejaVuSans-98"/>
      <use x="287.646484" xlink:href="#DejaVuSans-101"/>
      <use x="349.169922" xlink:href="#DejaVuSans-114"/>
      <use x="390.283203" xlink:href="#DejaVuSans-32"/>
      <use x="422.070312" xlink:href="#DejaVuSans-111"/>
      <use x="483.251953" xlink:href="#DejaVuSans-102"/>
      <use x="518.457031" xlink:href="#DejaVuSans-32"/>
      <use x="550.244141" xlink:href="#DejaVuSans-115"/>
      <use x="602.34375" xlink:href="#DejaVuSans-97"/>
      <use x="663.623047" xlink:href="#DejaVuSans-109"/>
      <use x="761.035156" xlink:href="#DejaVuSans-112"/>
      <use x="824.511719" xlink:href="#DejaVuSans-108"/>
      <use x="852.294922" xlink:href="#DejaVuSans-101"/>
      <use x="913.818359" xlink:href="#DejaVuSans-115"/>
      <use x="965.917969" xlink:href="#DejaVuSans-32"/>
      <use x="997.705078" xlink:href="#DejaVuSans-105"/>
      <use x="1025.488281" xlink:href="#DejaVuSans-110"/>
      <use x="1088.867188" xlink:href="#DejaVuSans-32"/>
      <use x="1120.654297" xlink:href="#DejaVuSans-111"/>
      <use x="1181.835938" xlink:href="#DejaVuSans-110"/>
      <use x="1245.214844" xlink:href="#DejaVuSans-101"/>
      <use x="1306.738281" xlink:href="#DejaVuSans-32"/>
      <use x="1338.525391" xlink:href="#DejaVuSans-119"/>
      <use x="1420.3125" xlink:href="#DejaVuSans-105"/>
      <use x="1448.095703" xlink:href="#DejaVuSans-110"/>
      <use x="1511.474609" xlink:href="#DejaVuSans-100"/>
      <use x="1574.951172" xlink:href="#DejaVuSans-111"/>
      <use x="1636.132812" xlink:href="#DejaVuSans-119"/>
     </g>
    </g>
    <g id="line2d_40">
     <path d="M 749.539062 92.293437 
L 769.539062 92.293437 
" style="fill:none;stroke:#808080;stroke-dasharray:1.5,2.475;stroke-dashoffset:0;stroke-width:1.5;"/>
    </g>
    <g id="line2d_41"/>
    <g id="text_40">
     <!-- min freq. at which at least one cycle  -->
     <g transform="translate(777.539062 89.154687)scale(0.1 -0.1)">
      <use xlink:href="#DejaVuSans-109"/>
      <use x="97.412109" xlink:href="#DejaVuSans-105"/>
      <use x="125.195312" xlink:href="#DejaVuSans-110"/>
      <use x="188.574219" xlink:href="#DejaVuSans-32"/>
      <use x="220.361328" xlink:href="#DejaVuSans-102"/>
      <use x="255.566406" xlink:href="#DejaVuSans-114"/>
      <use x="296.648438" xlink:href="#DejaVuSans-101"/>
      <use x="358.171875" xlink:href="#DejaVuSans-113"/>
      <use x="421.648438" xlink:href="#DejaVuSans-46"/>
      <use x="453.435547" xlink:href="#DejaVuSans-32"/>
      <use x="485.222656" xlink:href="#DejaVuSans-97"/>
      <use x="546.501953" xlink:href="#DejaVuSans-116"/>
      <use x="585.710938" xlink:href="#DejaVuSans-32"/>
      <use x="617.498047" xlink:href="#DejaVuSans-119"/>
      <use x="699.285156" xlink:href="#DejaVuSans-104"/>
      <use x="762.664062" xlink:href="#DejaVuSans-105"/>
      <use x="790.447266" xlink:href="#DejaVuSans-99"/>
      <use x="845.427734" xlink:href="#DejaVuSans-104"/>
      <use x="908.806641" xlink:href="#DejaVuSans-32"/>
      <use x="940.59375" xlink:href="#DejaVuSans-97"/>
      <use x="1001.873047" xlink:href="#DejaVuSans-116"/>
      <use x="1041.082031" xlink:href="#DejaVuSans-32"/>
      <use x="1072.869141" xlink:href="#DejaVuSans-108"/>
      <use x="1100.652344" xlink:href="#DejaVuSans-101"/>
      <use x="1162.175781" xlink:href="#DejaVuSans-97"/>
      <use x="1223.455078" xlink:href="#DejaVuSans-115"/>
      <use x="1275.554688" xlink:href="#DejaVuSans-116"/>
      <use x="1314.763672" xlink:href="#DejaVuSans-32"/>
      <use x="1346.550781" xlink:href="#DejaVuSans-111"/>
      <use x="1407.732422" xlink:href="#DejaVuSans-110"/>
      <use x="1471.111328" xlink:href="#DejaVuSans-101"/>
      <use x="1532.634766" xlink:href="#DejaVuSans-32"/>
      <use x="1564.421875" xlink:href="#DejaVuSans-99"/>
      <use x="1619.402344" xlink:href="#DejaVuSans-121"/>
      <use x="1678.582031" xlink:href="#DejaVuSans-99"/>
      <use x="1733.5625" xlink:href="#DejaVuSans-108"/>
      <use x="1761.345703" xlink:href="#DejaVuSans-101"/>
      <use x="1822.869141" xlink:href="#DejaVuSans-32"/>
     </g>
     <!-- fits into the learning window -->
     <g transform="translate(777.539062 100.3525)scale(0.1 -0.1)">
      <use xlink:href="#DejaVuSans-102"/>
      <use x="35.205078" xlink:href="#DejaVuSans-105"/>
      <use x="62.988281" xlink:href="#DejaVuSans-116"/>
      <use x="102.197266" xlink:href="#DejaVuSans-115"/>
      <use x="154.296875" xlink:href="#DejaVuSans-32"/>
      <use x="186.083984" xlink:href="#DejaVuSans-105"/>
      <use x="213.867188" xlink:href="#DejaVuSans-110"/>
      <use x="277.246094" xlink:href="#DejaVuSans-116"/>
      <use x="316.455078" xlink:href="#DejaVuSans-111"/>
      <use x="377.636719" xlink:href="#DejaVuSans-32"/>
      <use x="409.423828" xlink:href="#DejaVuSans-116"/>
      <use x="448.632812" xlink:href="#DejaVuSans-104"/>
      <use x="512.011719" xlink:href="#DejaVuSans-101"/>
      <use x="573.535156" xlink:href="#DejaVuSans-32"/>
      <use x="605.322266" xlink:href="#DejaVuSans-108"/>
      <use x="633.105469" xlink:href="#DejaVuSans-101"/>
      <use x="694.628906" xlink:href="#DejaVuSans-97"/>
      <use x="755.908203" xlink:href="#DejaVuSans-114"/>
      <use x="797.005859" xlink:href="#DejaVuSans-110"/>
      <use x="860.384766" xlink:href="#DejaVuSans-105"/>
      <use x="888.167969" xlink:href="#DejaVuSans-110"/>
      <use x="951.546875" xlink:href="#DejaVuSans-103"/>
      <use x="1015.023438" xlink:href="#DejaVuSans-32"/>
      <use x="1046.810547" xlink:href="#DejaVuSans-119"/>
      <use x="1128.597656" xlink:href="#DejaVuSans-105"/>
      <use x="1156.380859" xlink:href="#DejaVuSans-110"/>
      <use x="1219.759766" xlink:href="#DejaVuSans-100"/>
      <use x="1283.236328" xlink:href="#DejaVuSans-111"/>
      <use x="1344.417969" xlink:href="#DejaVuSans-119"/>
     </g>
    </g>
   </g>
  </g>
 </g>
 <defs>
  <clipPath id="p9c939684b6">
   <rect height="271.8" width="380.454545" x="135" y="43.2"/>
  </clipPath>
  <clipPath id="p2b6e9fd367">
   <rect height="271.8" width="380.454545" x="591.545455" y="43.2"/>
  </clipPath>
 </defs>
</svg>
